<?xml version="1.0" encoding="UTF-8"?>
<!DOCTYPE svg PUBLIC "-//W3C//DTD SVG 1.1//EN" "http://www.w3.org/Graphics/SVG/1.1/DTD/svg11.dtd">
<svg xmlns="http://www.w3.org/2000/svg" version="1.1" width="370px" height="667px" style="shape-rendering:geometricPrecision; text-rendering:geometricPrecision; image-rendering:optimizeQuality; fill-rule:evenodd; clip-rule:evenodd" xmlns:xlink="http://www.w3.org/1999/xlink">
<g><path style="opacity:1" fill="#40312a" d="M 200.5,190.5 C 202.039,192.877 203.373,195.377 204.5,198C 204.272,198.399 203.938,198.565 203.5,198.5C 201.25,198.819 199.25,198.319 197.5,197C 198.167,196.333 198.833,195.667 199.5,195C 196.625,193.211 193.625,191.711 190.5,190.5C 186.351,191.575 183.017,193.742 180.5,197C 181.33,199.279 180.497,201.112 178,202.5C 178.306,206.606 176.806,209.772 173.5,212C 176.146,212.497 178.813,212.664 181.5,212.5C 181.5,213.5 181.5,214.5 181.5,215.5C 190.917,213.877 200.251,214.21 209.5,216.5C 209.137,217.183 208.804,217.85 208.5,218.5C 207.833,218.5 207.167,218.5 206.5,218.5C 204.5,218.167 202.5,217.833 200.5,217.5C 197.854,216.836 195.021,216.502 192,216.5C 187.867,216.286 184.034,216.952 180.5,218.5C 175.772,219.698 171.439,221.698 167.5,224.5C 160.602,229.271 157.935,235.604 159.5,243.5C 159.158,242.662 158.492,242.328 157.5,242.5C 159.414,226.257 164.248,210.923 172,196.5C 180.108,187.103 189.608,185.103 200.5,190.5 Z"/></g>
<g><path style="opacity:1" fill="#302a21" d="M 203.5,198.5 C 205.374,200.934 206.707,203.768 207.5,207C 209.21,208.611 211.043,210.111 213,211.5C 213.678,214.303 214.844,216.803 216.5,219C 213.739,219.722 211.073,219.555 208.5,218.5C 208.804,217.85 209.137,217.183 209.5,216.5C 200.251,214.21 190.917,213.877 181.5,215.5C 181.5,214.5 181.5,213.5 181.5,212.5C 178.813,212.664 176.146,212.497 173.5,212C 176.806,209.772 178.306,206.606 178,202.5C 180.497,201.112 181.33,199.279 180.5,197C 183.017,193.742 186.351,191.575 190.5,190.5C 193.625,191.711 196.625,193.211 199.5,195C 198.833,195.667 198.167,196.333 197.5,197C 199.25,198.319 201.25,198.819 203.5,198.5 Z"/></g>
<g><path style="opacity:1" fill="#8d5f50" d="M 200.5,217.5 C 193.798,217.336 187.131,217.669 180.5,218.5C 184.034,216.952 187.867,216.286 192,216.5C 195.021,216.502 197.854,216.836 200.5,217.5 Z"/></g>
<g><path style="opacity:1" fill="#b67355" d="M 200.5,217.5 C 202.5,217.833 204.5,218.167 206.5,218.5C 209.964,220.317 213.298,222.317 216.5,224.5C 216.5,226.167 216.5,227.833 216.5,229.5C 216.5,232.167 216.5,234.833 216.5,237.5C 215.167,237.5 213.833,237.5 212.5,237.5C 207.65,236.467 202.983,237.133 198.5,239.5C 198.167,239.5 197.833,239.5 197.5,239.5C 198.207,237.866 199.373,236.532 201,235.5C 201.339,232.964 201.839,230.464 202.5,228C 201.333,225.929 201.999,224.429 204.5,223.5C 202.054,222.017 202.388,220.851 205.5,220C 203.256,219.95 201.589,219.117 200.5,217.5 Z"/></g>
<g><path style="opacity:1" fill="#4a3b31" d="M 200.5,190.5 C 205.041,192.202 208.541,195.202 211,199.5C 216.76,210.357 221.426,221.69 225,233.5C 225.587,237.31 225.087,240.977 223.5,244.5C 221.926,244.937 220.759,245.937 220,247.5C 219.667,242.5 219.333,237.5 219,232.5C 218.454,229.621 217.621,226.954 216.5,224.5C 213.298,222.317 209.964,220.317 206.5,218.5C 207.167,218.5 207.833,218.5 208.5,218.5C 211.073,219.555 213.739,219.722 216.5,219C 214.844,216.803 213.678,214.303 213,211.5C 211.043,210.111 209.21,208.611 207.5,207C 206.707,203.768 205.374,200.934 203.5,198.5C 203.938,198.565 204.272,198.399 204.5,198C 203.373,195.377 202.039,192.877 200.5,190.5 Z"/></g>
<g><path style="opacity:1" fill="#6b4330" d="M 212.5,237.5 C 213.303,238.423 213.47,239.423 213,240.5C 210.063,239.183 207.23,239.183 204.5,240.5C 203.5,240.5 202.5,240.5 201.5,240.5C 200.209,240.737 199.209,240.404 198.5,239.5C 202.983,237.133 207.65,236.467 212.5,237.5 Z"/></g>
<g><path style="opacity:1" fill="#7a5a48" d="M 167.5,224.5 C 166.821,227.707 165.654,230.707 164,233.5C 163.781,238.515 163.781,243.515 164,248.5C 163.26,246.03 161.76,244.363 159.5,243.5C 157.935,235.604 160.602,229.271 167.5,224.5 Z"/></g>
<g><path style="opacity:1" fill="#c27f69" d="M 201.5,240.5 C 202.5,240.5 203.5,240.5 204.5,240.5C 207.205,240.38 207.872,241.38 206.5,243.5C 203.816,243.976 201.483,244.976 199.5,246.5C 201.959,246.833 204.626,247.666 207.5,249C 205.167,249.333 202.833,249.667 200.5,250C 205.218,252.257 209.384,251.423 213,247.5C 213.5,247.833 214,248.167 214.5,248.5C 213.964,251.219 213.964,254.052 214.5,257C 214.726,259.671 214.059,262.004 212.5,264C 209.174,264.172 205.841,264.005 202.5,263.5C 202.737,262.209 202.404,261.209 201.5,260.5C 200.576,256.165 199.243,251.998 197.5,248C 197.667,246.5 197.833,245 198,243.5C 199.518,242.837 200.685,241.837 201.5,240.5 Z"/></g>
<g><path style="opacity:1" fill="#744933" d="M 216.5,224.5 C 217.621,226.954 218.454,229.621 219,232.5C 219.333,237.5 219.667,242.5 220,247.5C 220.759,245.937 221.926,244.937 223.5,244.5C 224.39,246.782 224.556,249.115 224,251.5C 221.371,258.42 219.037,265.42 217,272.5C 215.04,276.934 212.54,280.934 209.5,284.5C 205.663,285.445 201.996,286.778 198.5,288.5C 199.167,287.5 199.833,286.5 200.5,285.5C 201.583,285.461 202.583,285.127 203.5,284.5C 205.324,280.182 207.658,276.182 210.5,272.5C 212.159,267.697 214.659,263.364 218,259.5C 218.667,250.833 218.667,242.167 218,233.5C 217.79,231.942 217.29,230.609 216.5,229.5C 216.5,227.833 216.5,226.167 216.5,224.5 Z"/></g>
<g><path style="opacity:1" fill="#c38067" d="M 200.5,217.5 C 201.589,219.117 203.256,219.95 205.5,220C 202.388,220.851 202.054,222.017 204.5,223.5C 201.999,224.429 201.333,225.929 202.5,228C 201.839,230.464 201.339,232.964 201,235.5C 199.373,236.532 198.207,237.866 197.5,239.5C 196.833,239.5 196.167,239.5 195.5,239.5C 196.347,234.19 196.18,228.857 195,223.5C 193.334,221.597 191.5,221.263 189.5,222.5C 188.167,221.833 186.833,221.167 185.5,220.5C 183.865,221.046 182.199,221.38 180.5,221.5C 180.552,225.198 180.886,228.865 181.5,232.5C 178.428,232.183 175.428,232.516 172.5,233.5C 175.656,234.384 178.656,235.384 181.5,236.5C 179.266,236.62 177.099,236.287 175,235.5C 173.049,235.888 171.549,236.888 170.5,238.5C 175.242,239.114 179.909,239.947 184.5,241C 180.973,242.731 177.307,244.064 173.5,245C 177.346,246.536 181.346,247.369 185.5,247.5C 185.5,245.833 185.5,244.167 185.5,242.5C 186.675,242.719 187.675,242.386 188.5,241.5C 187.293,239.459 185.626,238.126 183.5,237.5C 186.715,237.405 189.549,238.405 192,240.5C 192.902,240.257 193.735,239.923 194.5,239.5C 193.439,246.467 193.439,253.467 194.5,260.5C 191.5,260.5 188.5,260.5 185.5,260.5C 185.5,259.5 185.5,258.5 185.5,257.5C 188.237,257.63 190.237,256.464 191.5,254C 191.167,253.5 190.833,253 190.5,252.5C 188.775,253.015 187.108,253.682 185.5,254.5C 180.891,257.934 176.391,261.6 172,265.5C 169.914,263.751 167.581,262.417 165,261.5C 164.658,263.619 163.825,263.953 162.5,262.5C 161.21,261.942 160.377,260.942 160,259.5C 158.11,253.985 157.276,248.319 157.5,242.5C 158.492,242.328 159.158,242.662 159.5,243.5C 161.76,244.363 163.26,246.03 164,248.5C 163.781,243.515 163.781,238.515 164,233.5C 165.654,230.707 166.821,227.707 167.5,224.5C 171.439,221.698 175.772,219.698 180.5,218.5C 187.131,217.669 193.798,217.336 200.5,217.5 Z"/></g>
<g><path style="opacity:1" fill="#8e5d46" d="M 181.5,236.5 C 181.842,237.338 182.508,237.672 183.5,237.5C 185.626,238.126 187.293,239.459 188.5,241.5C 187.675,242.386 186.675,242.719 185.5,242.5C 185.5,244.167 185.5,245.833 185.5,247.5C 181.346,247.369 177.346,246.536 173.5,245C 177.307,244.064 180.973,242.731 184.5,241C 179.909,239.947 175.242,239.114 170.5,238.5C 171.549,236.888 173.049,235.888 175,235.5C 177.099,236.287 179.266,236.62 181.5,236.5 Z"/></g>
<g><path style="opacity:1" fill="#d49480" d="M 195.5,239.5 C 195.167,239.5 194.833,239.5 194.5,239.5C 193.735,239.923 192.902,240.257 192,240.5C 189.549,238.405 186.715,237.405 183.5,237.5C 182.508,237.672 181.842,237.338 181.5,236.5C 178.656,235.384 175.656,234.384 172.5,233.5C 175.428,232.516 178.428,232.183 181.5,232.5C 180.886,228.865 180.552,225.198 180.5,221.5C 182.199,221.38 183.865,221.046 185.5,220.5C 186.833,221.167 188.167,221.833 189.5,222.5C 191.5,221.263 193.334,221.597 195,223.5C 196.18,228.857 196.347,234.19 195.5,239.5 Z"/></g>
<g><path style="opacity:1" fill="#9c664b" d="M 216.5,229.5 C 217.29,230.609 217.79,231.942 218,233.5C 218.667,242.167 218.667,250.833 218,259.5C 214.659,263.364 212.159,267.697 210.5,272.5C 208.616,272.712 207.283,273.712 206.5,275.5C 205.344,274.424 205.511,273.424 207,272.5C 207.667,270.167 207.667,267.833 207,265.5C 204.301,265.336 201.468,265.17 198.5,265C 200.863,264.411 201.863,262.911 201.5,260.5C 202.404,261.209 202.737,262.209 202.5,263.5C 205.841,264.005 209.174,264.172 212.5,264C 214.059,262.004 214.726,259.671 214.5,257C 213.964,254.052 213.964,251.219 214.5,248.5C 214,248.167 213.5,247.833 213,247.5C 209.384,251.423 205.218,252.257 200.5,250C 202.833,249.667 205.167,249.333 207.5,249C 204.626,247.666 201.959,246.833 199.5,246.5C 201.483,244.976 203.816,243.976 206.5,243.5C 207.872,241.38 207.205,240.38 204.5,240.5C 207.23,239.183 210.063,239.183 213,240.5C 213.47,239.423 213.303,238.423 212.5,237.5C 213.833,237.5 215.167,237.5 216.5,237.5C 216.5,234.833 216.5,232.167 216.5,229.5 Z"/></g>
<g><path style="opacity:1" fill="#a46e57" d="M 194.5,239.5 C 194.833,239.5 195.167,239.5 195.5,239.5C 196.167,239.5 196.833,239.5 197.5,239.5C 195.555,243.606 195.055,247.939 196,252.5C 197.17,255.772 198.67,258.772 200.5,261.5C 195.835,262.657 191.168,262.824 186.5,262C 189.539,262.353 192.205,263.52 194.5,265.5C 194.023,266.478 193.357,267.311 192.5,268C 188.615,267.205 184.615,266.705 180.5,266.5C 180.238,267.978 180.571,269.311 181.5,270.5C 187.435,270.064 193.435,270.064 199.5,270.5C 199.5,271.5 199.5,272.5 199.5,273.5C 194.517,274.519 189.517,274.685 184.5,274C 186.201,275.839 187.868,277.673 189.5,279.5C 188.262,279.81 188.262,280.31 189.5,281C 193.541,281.173 197.541,281.673 201.5,282.5C 200.873,283.417 200.539,284.417 200.5,285.5C 199.833,286.5 199.167,287.5 198.5,288.5C 194.936,289.423 191.269,289.756 187.5,289.5C 185.334,287.163 183.334,284.663 181.5,282C 180.552,281.517 179.552,281.351 178.5,281.5C 177.949,277.477 175.949,274.477 172.5,272.5C 168.978,275.216 166.811,274.216 166,269.5C 165.601,269.728 165.435,270.062 165.5,270.5C 163.903,268.152 162.903,265.486 162.5,262.5C 163.825,263.953 164.658,263.619 165,261.5C 167.581,262.417 169.914,263.751 172,265.5C 176.391,261.6 180.891,257.934 185.5,254.5C 187.108,253.682 188.775,253.015 190.5,252.5C 190.833,253 191.167,253.5 191.5,254C 190.237,256.464 188.237,257.63 185.5,257.5C 185.5,258.5 185.5,259.5 185.5,260.5C 188.5,260.5 191.5,260.5 194.5,260.5C 193.439,253.467 193.439,246.467 194.5,239.5 Z"/></g>
<g><path style="opacity:1" fill="#8a503e" d="M 197.5,239.5 C 197.833,239.5 198.167,239.5 198.5,239.5C 199.209,240.404 200.209,240.737 201.5,240.5C 200.685,241.837 199.518,242.837 198,243.5C 197.833,245 197.667,246.5 197.5,248C 199.243,251.998 200.576,256.165 201.5,260.5C 201.863,262.911 200.863,264.411 198.5,265C 201.468,265.17 204.301,265.336 207,265.5C 207.667,267.833 207.667,270.167 207,272.5C 205.511,273.424 205.344,274.424 206.5,275.5C 207.283,273.712 208.616,272.712 210.5,272.5C 207.658,276.182 205.324,280.182 203.5,284.5C 202.583,285.127 201.583,285.461 200.5,285.5C 200.539,284.417 200.873,283.417 201.5,282.5C 197.541,281.673 193.541,281.173 189.5,281C 188.262,280.31 188.262,279.81 189.5,279.5C 194.797,280.692 198.797,279.026 201.5,274.5C 201.043,273.702 200.376,273.369 199.5,273.5C 199.5,272.5 199.5,271.5 199.5,270.5C 193.435,270.064 187.435,270.064 181.5,270.5C 180.571,269.311 180.238,267.978 180.5,266.5C 184.615,266.705 188.615,267.205 192.5,268C 193.357,267.311 194.023,266.478 194.5,265.5C 192.205,263.52 189.539,262.353 186.5,262C 191.168,262.824 195.835,262.657 200.5,261.5C 198.67,258.772 197.17,255.772 196,252.5C 195.055,247.939 195.555,243.606 197.5,239.5 Z"/></g>
<g><path style="opacity:1" fill="#b06561" d="M 199.5,273.5 C 200.376,273.369 201.043,273.702 201.5,274.5C 198.797,279.026 194.797,280.692 189.5,279.5C 187.868,277.673 186.201,275.839 184.5,274C 189.517,274.685 194.517,274.519 199.5,273.5 Z"/></g>
<g><path style="opacity:1" fill="#43281d" d="M 187.5,289.5 C 191.269,289.756 194.936,289.423 198.5,288.5C 201.996,286.778 205.663,285.445 209.5,284.5C 211.118,287.888 212.118,291.554 212.5,295.5C 211.025,294.477 210.358,292.477 210.5,289.5C 206.169,291.666 202.169,294.332 198.5,297.5C 196.336,297.721 194.67,298.721 193.5,300.5C 190.263,297.93 187.263,294.93 184.5,291.5C 181.429,289.102 178.095,287.102 174.5,285.5C 173.614,284.675 173.281,283.675 173.5,282.5C 174.873,282.343 176.207,282.51 177.5,283C 181.003,285.022 184.337,287.189 187.5,289.5 Z"/></g>
<g><path style="opacity:1" fill="#2b2b3e" d="M 171.5,282.5 C 171.834,290.989 174.834,298.489 180.5,305C 182.833,305.667 185.167,305.667 187.5,305C 189.66,303.668 191.66,302.168 193.5,300.5C 194.67,298.721 196.336,297.721 198.5,297.5C 200.484,296.844 202.484,296.178 204.5,295.5C 205.167,295.833 205.833,296.167 206.5,296.5C 204.467,300.387 204.134,304.387 205.5,308.5C 204.229,310.585 203.229,312.752 202.5,315C 203.599,317.036 204.932,318.869 206.5,320.5C 206.741,323.034 205.741,324.7 203.5,325.5C 201.616,325.288 200.283,324.288 199.5,322.5C 198.817,322.863 198.15,323.196 197.5,323.5C 192.554,326.706 191.554,325.873 194.5,321C 192.52,318.369 189.853,316.869 186.5,316.5C 185.167,317.833 183.833,317.833 182.5,316.5C 181.451,318.528 180.451,320.528 179.5,322.5C 178.292,323.234 176.959,323.567 175.5,323.5C 175.545,320.923 174.545,318.923 172.5,317.5C 174.035,316.156 175.368,314.489 176.5,312.5C 177.59,311.391 177.59,310.391 176.5,309.5C 170.985,314.266 165.318,318.766 159.5,323C 159.043,323.414 158.709,323.914 158.5,324.5C 159.852,325.524 161.185,326.524 162.5,327.5C 162.631,328.239 162.464,328.906 162,329.5C 160.667,328.833 159.333,328.167 158,327.5C 156.434,321.978 156.267,316.478 157.5,311C 156.207,310.51 154.873,310.343 153.5,310.5C 153.829,316.206 153.495,321.872 152.5,327.5C 149.062,324.255 147.229,320.255 147,315.5C 144.783,321.342 142.949,327.342 141.5,333.5C 139.981,327.988 138.981,322.321 138.5,316.5C 137.534,318.396 137.201,320.396 137.5,322.5C 136.5,322.5 135.5,322.5 134.5,322.5C 134.34,324.199 134.506,325.866 135,327.5C 135.667,328.833 136.333,328.833 137,327.5C 137.167,328 137.333,328.5 137.5,329C 135.756,332.623 136.423,335.623 139.5,338C 137.563,338.122 136.23,338.955 135.5,340.5C 135.5,340.833 135.5,341.167 135.5,341.5C 133.449,338.082 131.782,334.416 130.5,330.5C 129.053,328.597 127.386,326.93 125.5,325.5C 125.709,324.914 126.043,324.414 126.5,324C 123.872,322.374 121.539,320.374 119.5,318C 125.721,320.347 126.054,319.347 120.5,315C 124.114,316.578 127.281,319.078 130,322.5C 130.605,320.519 131.605,320.185 133,321.5C 133.309,317.105 132.142,313.105 129.5,309.5C 131.674,308.107 133.507,308.44 135,310.5C 137.081,308.443 136.914,306.777 134.5,305.5C 134.56,304.957 134.893,304.624 135.5,304.5C 137.193,306.027 139.027,307.36 141,308.5C 142.417,306.602 143.917,304.936 145.5,303.5C 147.993,303.869 148.66,303.203 147.5,301.5C 152.189,302.833 156.856,302.666 161.5,301C 165.272,294.947 168.606,288.781 171.5,282.5 Z"/></g>
<g><path style="opacity:0.906" fill="#201819" d="M 147.5,301.5 C 148.66,303.203 147.993,303.869 145.5,303.5C 145.5,303.167 145.5,302.833 145.5,302.5C 145.5,301.833 145.167,301.5 144.5,301.5C 136.209,301.597 128.875,304.263 122.5,309.5C 121.893,309.376 121.56,309.043 121.5,308.5C 125.203,303.805 129.87,300.305 135.5,298C 140.133,297.158 144.133,298.324 147.5,301.5 Z"/></g>
<g><path style="opacity:1" fill="#774937" d="M 187.5,289.5 C 184.337,287.189 181.003,285.022 177.5,283C 176.207,282.51 174.873,282.343 173.5,282.5C 173.281,283.675 173.614,284.675 174.5,285.5C 178.095,287.102 181.429,289.102 184.5,291.5C 187.263,294.93 190.263,297.93 193.5,300.5C 191.66,302.168 189.66,303.668 187.5,305C 185.167,305.667 182.833,305.667 180.5,305C 174.834,298.489 171.834,290.989 171.5,282.5C 168.967,278.768 166.967,274.768 165.5,270.5C 165.435,270.062 165.601,269.728 166,269.5C 166.811,274.216 168.978,275.216 172.5,272.5C 175.949,274.477 177.949,277.477 178.5,281.5C 179.552,281.351 180.552,281.517 181.5,282C 183.334,284.663 185.334,287.163 187.5,289.5 Z"/></g>
<g><path style="opacity:1" fill="#43343b" d="M 144.5,301.5 C 145.167,301.5 145.5,301.833 145.5,302.5C 145.5,302.833 145.5,303.167 145.5,303.5C 143.917,304.936 142.417,306.602 141,308.5C 139.027,307.36 137.193,306.027 135.5,304.5C 134.893,304.624 134.56,304.957 134.5,305.5C 133.127,305.343 131.793,305.51 130.5,306C 127.447,308.869 124.113,311.369 120.5,313.5C 119.702,313.043 119.369,312.376 119.5,311.5C 119.427,309.973 120.094,308.973 121.5,308.5C 121.56,309.043 121.893,309.376 122.5,309.5C 128.875,304.263 136.209,301.597 144.5,301.5 Z"/></g>
<g><path style="opacity:1" fill="#2c2b34" d="M 212.5,295.5 C 212.991,298.152 214.658,299.652 217.5,300C 225.884,302.457 234.217,303.624 242.5,303.5C 242.5,303.833 242.5,304.167 242.5,304.5C 242.167,304.5 241.833,304.5 241.5,304.5C 235.298,304.82 235.631,305.653 242.5,307C 239.057,307.221 238.724,308.221 241.5,310C 240.906,310.464 240.239,310.631 239.5,310.5C 238.5,310.5 237.5,310.5 236.5,310.5C 235.69,312.798 234.856,315.132 234,317.5C 233.085,316.672 232.419,315.672 232,314.5C 228.554,316.05 226.554,318.717 226,322.5C 224.768,319.7 224.101,316.7 224,313.5C 221.146,314.443 217.646,314.443 213.5,313.5C 210.736,313.999 209.069,315.665 208.5,318.5C 207.5,318.833 206.833,319.5 206.5,320.5C 204.932,318.869 203.599,317.036 202.5,315C 203.229,312.752 204.229,310.585 205.5,308.5C 204.134,304.387 204.467,300.387 206.5,296.5C 205.833,296.167 205.167,295.833 204.5,295.5C 202.484,296.178 200.484,296.844 198.5,297.5C 202.169,294.332 206.169,291.666 210.5,289.5C 210.358,292.477 211.025,294.477 212.5,295.5 Z"/></g>
<g><path style="opacity:0.984" fill="#47495d" d="M 242.5,304.5 C 242.5,304.167 242.5,303.833 242.5,303.5C 249.396,305.395 254.063,309.728 256.5,316.5C 256.5,317.5 256.5,318.5 256.5,319.5C 255.167,319.5 253.833,319.5 252.5,319.5C 252.167,319.5 251.833,319.5 251.5,319.5C 250.833,319.5 250.167,319.5 249.5,319.5C 249.469,314.532 247.635,310.532 244,307.5C 244.374,309.769 244.374,312.102 244,314.5C 242.644,315.38 241.144,315.714 239.5,315.5C 239.5,313.833 239.5,312.167 239.5,310.5C 240.239,310.631 240.906,310.464 241.5,310C 238.724,308.221 239.057,307.221 242.5,307C 235.631,305.653 235.298,304.82 241.5,304.5C 242.849,305.644 243.183,305.644 242.5,304.5 Z"/></g>
<g><path style="opacity:1" fill="#2b2c41" d="M 249.5,319.5 C 245.462,321.519 241.462,323.519 237.5,325.5C 235.319,333.333 233.986,341.333 233.5,349.5C 232.833,351.167 232.167,352.833 231.5,354.5C 230.735,355.612 229.735,356.279 228.5,356.5C 222.205,355.541 215.872,354.875 209.5,354.5C 209.611,353.883 209.944,353.383 210.5,353C 216.043,352.947 221.377,352.114 226.5,350.5C 228.117,351.038 229.784,351.371 231.5,351.5C 231.5,348.5 231.5,345.5 231.5,342.5C 229.585,342.784 227.919,342.451 226.5,341.5C 229.018,339.643 229.018,337.81 226.5,336C 228.983,335.433 229.65,334.267 228.5,332.5C 230.98,330.373 232.146,327.706 232,324.5C 230.667,326.167 229.333,327.833 228,329.5C 224.392,327.204 222.559,323.871 222.5,319.5C 219.358,320.215 216.358,321.048 213.5,322C 212.709,319.25 212.709,316.417 213.5,313.5C 217.646,314.443 221.146,314.443 224,313.5C 224.101,316.7 224.768,319.7 226,322.5C 226.554,318.717 228.554,316.05 232,314.5C 232.419,315.672 233.085,316.672 234,317.5C 234.856,315.132 235.69,312.798 236.5,310.5C 237.5,310.5 238.5,310.5 239.5,310.5C 239.5,312.167 239.5,313.833 239.5,315.5C 241.144,315.714 242.644,315.38 244,314.5C 244.374,312.102 244.374,309.769 244,307.5C 247.635,310.532 249.469,314.532 249.5,319.5 Z"/></g>
<g><path style="opacity:1" fill="#171823" d="M 172.5,317.5 C 169.288,317.712 167.288,319.379 166.5,322.5C 164.818,323.827 163.485,325.494 162.5,327.5C 161.185,326.524 159.852,325.524 158.5,324.5C 158.709,323.914 159.043,323.414 159.5,323C 165.318,318.766 170.985,314.266 176.5,309.5C 177.59,310.391 177.59,311.391 176.5,312.5C 175.368,314.489 174.035,316.156 172.5,317.5 Z"/></g>
<g><path style="opacity:1" fill="#2c2f4d" d="M 197.5,323.5 C 197.66,325.199 197.494,326.866 197,328.5C 194.551,333.091 192.384,337.758 190.5,342.5C 190.813,339.753 190.48,337.086 189.5,334.5C 189.113,338.218 187.447,341.218 184.5,343.5C 185.022,344.607 185.355,345.774 185.5,347C 184.419,348.756 183.753,350.256 183.5,351.5C 182.868,348.97 181.868,346.637 180.5,344.5C 183.462,341.612 182.795,340.279 178.5,340.5C 178.549,337.626 178.216,334.792 177.5,332C 178.483,328.888 179.15,325.722 179.5,322.5C 180.451,320.528 181.451,318.528 182.5,316.5C 183.833,317.833 185.167,317.833 186.5,316.5C 189.853,316.869 192.52,318.369 194.5,321C 191.554,325.873 192.554,326.706 197.5,323.5 Z"/></g>
<g><path style="opacity:1" fill="#2c2d49" d="M 213.5,313.5 C 212.709,316.417 212.709,319.25 213.5,322C 216.358,321.048 219.358,320.215 222.5,319.5C 222.559,323.871 224.392,327.204 228,329.5C 229.333,327.833 230.667,326.167 232,324.5C 232.146,327.706 230.98,330.373 228.5,332.5C 224.92,333.077 221.92,332.077 219.5,329.5C 217.167,331.167 215.167,333.167 213.5,335.5C 213.12,333.979 212.954,332.313 213,330.5C 211.656,332.342 210.156,334.008 208.5,335.5C 207.722,333.2 206.722,331.034 205.5,329C 206.787,326.929 207.953,324.762 209,322.5C 209.765,320.934 209.598,319.601 208.5,318.5C 209.069,315.665 210.736,313.999 213.5,313.5 Z"/></g>
<g><path style="opacity:1" fill="#1a51b6" d="M 176.5,337.5 C 173.833,337.5 171.167,337.5 168.5,337.5C 167.352,332.57 166.685,327.57 166.5,322.5C 168.833,320 171.166,320 173.5,322.5C 174.823,327.441 175.823,332.441 176.5,337.5 Z"/></g>
<g><path style="opacity:1" fill="#383751" d="M 134.5,305.5 C 136.914,306.777 137.081,308.443 135,310.5C 133.507,308.44 131.674,308.107 129.5,309.5C 132.142,313.105 133.309,317.105 133,321.5C 131.605,320.185 130.605,320.519 130,322.5C 127.281,319.078 124.114,316.578 120.5,315C 126.054,319.347 125.721,320.347 119.5,318C 121.539,320.374 123.872,322.374 126.5,324C 126.043,324.414 125.709,324.914 125.5,325.5C 127.386,326.93 129.053,328.597 130.5,330.5C 131.782,334.416 133.449,338.082 135.5,341.5C 135.328,342.492 135.662,343.158 136.5,343.5C 136.5,344.833 136.5,346.167 136.5,347.5C 134.5,347.5 132.5,347.5 130.5,347.5C 129.452,354.993 131.619,361.326 137,366.5C 137.74,367.749 137.573,368.749 136.5,369.5C 135.883,367.771 134.883,366.271 133.5,365C 131.041,363.71 128.708,362.21 126.5,360.5C 128.836,356.489 129.836,352.155 129.5,347.5C 128.178,347.67 127.011,347.337 126,346.5C 123.459,342.748 120.459,339.415 117,336.5C 116.517,335.552 116.351,334.552 116.5,333.5C 112.658,333.239 108.991,333.906 105.5,335.5C 104.438,337.022 103.771,338.688 103.5,340.5C 102.662,340.842 102.328,341.508 102.5,342.5C 101.833,342.5 101.5,342.167 101.5,341.5C 104.26,332.649 108.093,324.315 113,316.5C 115.287,314.946 117.454,313.279 119.5,311.5C 119.369,312.376 119.702,313.043 120.5,313.5C 124.113,311.369 127.447,308.869 130.5,306C 131.793,305.51 133.127,305.343 134.5,305.5 Z"/></g>
<g><path style="opacity:1" fill="#272948" d="M 162.5,327.5 C 163.485,325.494 164.818,323.827 166.5,322.5C 166.685,327.57 167.352,332.57 168.5,337.5C 170.441,346.202 172.108,354.868 173.5,363.5C 173.629,365.216 173.962,366.883 174.5,368.5C 173.624,368.631 172.957,368.298 172.5,367.5C 167.6,358.868 164.767,349.535 164,339.5C 162.39,341.578 161.39,343.578 161,345.5C 160.333,344.167 159.667,344.167 159,345.5C 157.805,342.97 155.972,340.97 153.5,339.5C 152.818,340.243 152.151,340.909 151.5,341.5C 151.565,341.062 151.399,340.728 151,340.5C 149.961,341.244 149.461,342.244 149.5,343.5C 148.833,343.5 148.167,343.5 147.5,343.5C 147.649,342.448 147.483,341.448 147,340.5C 143.227,341.517 139.394,341.517 135.5,340.5C 136.23,338.955 137.563,338.122 139.5,338C 136.423,335.623 135.756,332.623 137.5,329C 137.333,328.5 137.167,328 137,327.5C 136.333,328.833 135.667,328.833 135,327.5C 134.506,325.866 134.34,324.199 134.5,322.5C 135.5,322.5 136.5,322.5 137.5,322.5C 137.201,320.396 137.534,318.396 138.5,316.5C 138.981,322.321 139.981,327.988 141.5,333.5C 142.949,327.342 144.783,321.342 147,315.5C 147.229,320.255 149.062,324.255 152.5,327.5C 153.495,321.872 153.829,316.206 153.5,310.5C 154.873,310.343 156.207,310.51 157.5,311C 156.267,316.478 156.434,321.978 158,327.5C 159.333,328.167 160.667,328.833 162,329.5C 162.464,328.906 162.631,328.239 162.5,327.5 Z"/></g>
<g><path style="opacity:1" fill="#275fba" d="M 203.5,325.5 C 204.368,328.8 204.201,332.133 203,335.5C 199.309,345.306 195.476,354.973 191.5,364.5C 191.163,360.445 192.163,356.445 194.5,352.5C 194.167,352.167 193.833,351.833 193.5,351.5C 192.338,353.824 191.171,356.158 190,358.5C 191.152,351.751 193.319,345.251 196.5,339C 195.551,338.383 194.718,338.549 194,339.5C 192.197,345.242 190.197,350.909 188,356.5C 187.583,357.756 186.75,358.423 185.5,358.5C 187.462,353.339 189.128,348.005 190.5,342.5C 192.384,337.758 194.551,333.091 197,328.5C 197.494,326.866 197.66,325.199 197.5,323.5C 198.15,323.196 198.817,322.863 199.5,322.5C 200.283,324.288 201.616,325.288 203.5,325.5 Z"/></g>
<g><path style="opacity:1" fill="#9599b2" d="M 135.5,340.5 C 139.394,341.517 143.227,341.517 147,340.5C 147.483,341.448 147.649,342.448 147.5,343.5C 145.621,344.341 143.621,344.675 141.5,344.5C 140.081,343.549 138.415,343.216 136.5,343.5C 135.662,343.158 135.328,342.492 135.5,341.5C 135.5,341.167 135.5,340.833 135.5,340.5 Z"/></g>
<g><path style="opacity:1" fill="#292c44" d="M 251.5,319.5 C 251.833,319.5 252.167,319.5 252.5,319.5C 252.5,321.167 252.5,322.833 252.5,324.5C 253.833,324.5 255.167,324.5 256.5,324.5C 256.608,326.783 257.441,328.783 259,330.5C 259.414,330.043 259.914,329.709 260.5,329.5C 261.262,330.628 261.929,331.795 262.5,333C 261.912,336.598 260.912,340.098 259.5,343.5C 260.274,344.711 261.107,344.711 262,343.5C 262.881,346.647 264.047,349.647 265.5,352.5C 265.167,352.5 264.833,352.5 264.5,352.5C 262.833,352.5 261.167,352.5 259.5,352.5C 259.617,350.516 258.95,348.85 257.5,347.5C 252.802,349.644 248.302,351.311 244,352.5C 243.5,352 243,351.5 242.5,351C 245.315,348.523 247.315,345.523 248.5,342C 247.833,341.333 247.167,341.333 246.5,342C 245.696,343.771 244.529,345.271 243,346.5C 239.952,345.217 239.785,343.551 242.5,341.5C 241.833,340.833 241.167,340.167 240.5,339.5C 242.533,337.548 242.866,335.382 241.5,333C 244.667,329.5 247.833,326 251,322.5C 251.483,321.552 251.649,320.552 251.5,319.5 Z"/></g>
<g><path style="opacity:1" fill="#8b8eaf" d="M 151.5,341.5 C 151.441,343.765 152.274,344.098 154,342.5C 156.2,342.893 156.7,343.893 155.5,345.5C 154.808,344.975 154.308,344.308 154,343.5C 153.692,344.308 153.192,344.975 152.5,345.5C 151.482,344.807 150.482,344.141 149.5,343.5C 149.461,342.244 149.961,341.244 151,340.5C 151.399,340.728 151.565,341.062 151.5,341.5 Z"/></g>
<g><path style="opacity:1" fill="#363657" d="M 174.5,368.5 C 174.5,368.833 174.5,369.167 174.5,369.5C 173.167,369.5 171.833,369.5 170.5,369.5C 169.992,366.148 168.658,363.148 166.5,360.5C 161.676,372.651 160.342,371.984 162.5,358.5C 158.781,358.998 155.447,358.164 152.5,356C 155.421,355.85 158.254,356.35 161,357.5C 164.395,355.706 164.061,354.706 160,354.5C 153.219,353.247 146.385,352.414 139.5,352C 138.833,349.667 138.167,347.333 137.5,345C 138.793,344.51 140.127,344.343 141.5,344.5C 143.621,344.675 145.621,344.341 147.5,343.5C 148.167,343.5 148.833,343.5 149.5,343.5C 150.482,344.141 151.482,344.807 152.5,345.5C 153.192,344.975 153.692,344.308 154,343.5C 154.308,344.308 154.808,344.975 155.5,345.5C 156.7,343.893 156.2,342.893 154,342.5C 152.274,344.098 151.441,343.765 151.5,341.5C 152.151,340.909 152.818,340.243 153.5,339.5C 155.972,340.97 157.805,342.97 159,345.5C 159.667,344.167 160.333,344.167 161,345.5C 161.39,343.578 162.39,341.578 164,339.5C 164.767,349.535 167.6,358.868 172.5,367.5C 172.957,368.298 173.624,368.631 174.5,368.5 Z"/></g>
<g><path style="opacity:1" fill="#5e607e" d="M 226.5,341.5 C 227.919,342.451 229.585,342.784 231.5,342.5C 231.5,345.5 231.5,348.5 231.5,351.5C 229.784,351.371 228.117,351.038 226.5,350.5C 225.391,349.121 224.724,347.455 224.5,345.5C 224.585,343.667 225.252,342.334 226.5,341.5 Z"/></g>
<g><path style="opacity:1" fill="#3c3e5f" d="M 103.5,340.5 C 106.187,340.336 108.854,340.503 111.5,341C 113.888,342.861 116.554,344.194 119.5,345C 123.417,348.25 125.084,352.417 124.5,357.5C 115.769,358.724 107.102,359.891 98.5,361C 100.059,360.02 101.726,359.187 103.5,358.5C 101.612,357.761 99.6119,357.761 97.5,358.5C 95.9704,358.36 94.9704,357.693 94.5,356.5C 101.772,356.415 107.606,353.415 112,347.5C 112.711,345.633 112.211,344.133 110.5,343C 107.854,342.503 105.187,342.336 102.5,342.5C 102.328,341.508 102.662,340.842 103.5,340.5 Z"/></g>
<g><path style="opacity:1" fill="#4b4968" d="M 136.5,369.5 C 134.901,369.232 133.568,369.566 132.5,370.5C 129.5,370.5 126.5,370.5 123.5,370.5C 124.263,369.732 125.263,369.232 126.5,369C 121.53,368.114 116.53,367.448 111.5,367C 114.167,366.667 116.833,366.333 119.5,366C 118.91,364.701 117.91,363.868 116.5,363.5C 112.142,363.833 108.476,365.5 105.5,368.5C 104.914,368.291 104.414,367.957 104,367.5C 101.845,369.167 99.345,370.167 96.5,370.5C 95.9478,372.003 95.9478,373.669 96.5,375.5C 93.1485,375.53 90.4818,376.863 88.5,379.5C 88.1667,380.5 87.5,381.167 86.5,381.5C 87.9954,375.518 89.4954,369.518 91,363.5C 91.6701,360.826 92.8368,358.493 94.5,356.5C 94.9704,357.693 95.9704,358.36 97.5,358.5C 99.6119,357.761 101.612,357.761 103.5,358.5C 101.726,359.187 100.059,360.02 98.5,361C 107.102,359.891 115.769,358.724 124.5,357.5C 125.084,352.417 123.417,348.25 119.5,345C 116.554,344.194 113.888,342.861 111.5,341C 108.854,340.503 106.187,340.336 103.5,340.5C 103.771,338.688 104.438,337.022 105.5,335.5C 108.991,333.906 112.658,333.239 116.5,333.5C 116.351,334.552 116.517,335.552 117,336.5C 120.459,339.415 123.459,342.748 126,346.5C 127.011,347.337 128.178,347.67 129.5,347.5C 129.836,352.155 128.836,356.489 126.5,360.5C 128.708,362.21 131.041,363.71 133.5,365C 134.883,366.271 135.883,367.771 136.5,369.5 Z"/></g>
<g><path style="opacity:1" fill="#748eb8" d="M 101.5,341.5 C 101.5,342.167 101.833,342.5 102.5,342.5C 105.187,342.336 107.854,342.503 110.5,343C 112.211,344.133 112.711,345.633 112,347.5C 107.606,353.415 101.772,356.415 94.5,356.5C 96.5968,351.311 98.9302,346.311 101.5,341.5 Z"/></g>
<g><path style="opacity:1" fill="#343659" d="M 208.5,318.5 C 209.598,319.601 209.765,320.934 209,322.5C 207.953,324.762 206.787,326.929 205.5,329C 206.722,331.034 207.722,333.2 208.5,335.5C 210.156,334.008 211.656,332.342 213,330.5C 212.954,332.313 213.12,333.979 213.5,335.5C 215.167,333.167 217.167,331.167 219.5,329.5C 221.92,332.077 224.92,333.077 228.5,332.5C 229.65,334.267 228.983,335.433 226.5,336C 229.018,337.81 229.018,339.643 226.5,341.5C 225.252,342.334 224.585,343.667 224.5,345.5C 224.724,347.455 225.391,349.121 226.5,350.5C 221.377,352.114 216.043,352.947 210.5,353C 209.944,353.383 209.611,353.883 209.5,354.5C 207.208,354.244 205.041,354.577 203,355.5C 203.148,356.825 202.982,357.992 202.5,359C 203.833,359.333 205.167,359.667 206.5,360C 203.722,361.392 200.722,361.892 197.5,361.5C 197.5,362.833 197.5,364.167 197.5,365.5C 197.5,365.833 197.5,366.167 197.5,366.5C 195.5,366.5 193.5,366.5 191.5,366.5C 191.5,365.833 191.5,365.167 191.5,364.5C 195.476,354.973 199.309,345.306 203,335.5C 204.201,332.133 204.368,328.8 203.5,325.5C 205.741,324.7 206.741,323.034 206.5,320.5C 206.833,319.5 207.5,318.833 208.5,318.5 Z"/></g>
<g><path style="opacity:1" fill="#8385a6" d="M 216.5,339.5 C 223.271,340.307 225.271,343.973 222.5,350.5C 222.167,350.333 221.833,350.167 221.5,350C 220.565,347.619 220.232,345.119 220.5,342.5C 219.5,342.5 218.5,342.5 217.5,342.5C 217.918,341.778 218.584,341.278 219.5,341C 218.263,340.768 217.263,340.268 216.5,339.5 Z"/></g>
<g><path style="opacity:1" fill="#bbbbd6" d="M 216.5,339.5 C 217.263,340.268 218.263,340.768 219.5,341C 218.584,341.278 217.918,341.778 217.5,342.5C 216.926,344.788 215.926,346.955 214.5,349C 212.074,348.952 209.741,349.119 207.5,349.5C 206.102,346.565 206.435,343.898 208.5,341.5C 210.117,340.962 211.784,340.629 213.5,340.5C 213.5,339.5 213.5,338.5 213.5,337.5C 215.179,337.285 216.179,337.952 216.5,339.5 Z"/></g>
<g><path style="opacity:1" fill="#33375e" d="M 210.5,342.5 C 211.5,342.5 212.5,342.5 213.5,342.5C 213.5,343.833 213.5,345.167 213.5,346.5C 212.5,346.5 211.5,346.5 210.5,346.5C 210.5,345.167 210.5,343.833 210.5,342.5 Z"/></g>
<g><path style="opacity:1" fill="#bdbadb" d="M 208.5,341.5 C 206.535,341.052 206.202,340.052 207.5,338.5C 209.519,339.133 209.853,340.133 208.5,341.5 Z"/></g>
<g><path style="opacity:1" fill="#2a305a" d="M 172.5,317.5 C 174.545,318.923 175.545,320.923 175.5,323.5C 176.959,323.567 178.292,323.234 179.5,322.5C 179.15,325.722 178.483,328.888 177.5,332C 178.216,334.792 178.549,337.626 178.5,340.5C 182.795,340.279 183.462,341.612 180.5,344.5C 181.868,346.637 182.868,348.97 183.5,351.5C 183.753,350.256 184.419,348.756 185.5,347C 185.355,345.774 185.022,344.607 184.5,343.5C 187.447,341.218 189.113,338.218 189.5,334.5C 190.48,337.086 190.813,339.753 190.5,342.5C 189.128,348.005 187.462,353.339 185.5,358.5C 184.68,360.812 183.847,363.146 183,365.5C 182.098,363.073 181.264,360.74 180.5,358.5C 180.091,351.291 178.757,344.291 176.5,337.5C 175.823,332.441 174.823,327.441 173.5,322.5C 171.166,320 168.833,320 166.5,322.5C 167.288,319.379 169.288,317.712 172.5,317.5 Z"/></g>
<g><path style="opacity:1" fill="#494565" d="M 136.5,343.5 C 138.415,343.216 140.081,343.549 141.5,344.5C 140.127,344.343 138.793,344.51 137.5,345C 138.167,347.333 138.833,349.667 139.5,352C 146.385,352.414 153.219,353.247 160,354.5C 164.061,354.706 164.395,355.706 161,357.5C 158.254,356.35 155.421,355.85 152.5,356C 155.447,358.164 158.781,358.998 162.5,358.5C 160.342,371.984 161.676,372.651 166.5,360.5C 168.658,363.148 169.992,366.148 170.5,369.5C 161.584,370.471 152.584,370.804 143.5,370.5C 142.852,368.914 142.352,367.247 142,365.5C 139.788,362.632 137.621,359.798 135.5,357C 136.972,353.735 137.305,350.569 136.5,347.5C 136.5,346.167 136.5,344.833 136.5,343.5 Z"/></g>
<g><path style="opacity:1" fill="#3465b7" d="M 168.5,337.5 C 171.167,337.5 173.833,337.5 176.5,337.5C 178.757,344.291 180.091,351.291 180.5,358.5C 180.631,359.239 180.464,359.906 180,360.5C 179.259,355.38 178.092,350.38 176.5,345.5C 176.167,345.833 175.833,346.167 175.5,346.5C 177.424,352.709 178.258,359.043 178,365.5C 177.125,362.117 176.125,358.784 175,355.5C 174.313,357.568 174.48,359.568 175.5,361.5C 174.757,362.182 174.091,362.849 173.5,363.5C 172.108,354.868 170.441,346.202 168.5,337.5 Z"/></g>
<g><path style="opacity:1" fill="#739be4" d="M 170.5,338.5 C 174.691,337.869 176.525,339.535 176,343.5C 174.612,344.554 173.112,344.72 171.5,344C 172.448,343.517 173.448,343.351 174.5,343.5C 174.762,342.022 174.429,340.689 173.5,339.5C 171.952,342.007 170.952,341.674 170.5,338.5 Z"/></g>
<g><path style="opacity:1" fill="#3b354d" d="M 209.5,354.5 C 215.872,354.875 222.205,355.541 228.5,356.5C 228.047,357.458 227.381,358.292 226.5,359C 227.337,360.011 227.67,361.178 227.5,362.5C 228.5,362.5 229.5,362.5 230.5,362.5C 230.443,364.884 230.777,367.218 231.5,369.5C 233.429,373.44 235.429,377.273 237.5,381C 236.833,381.667 236.167,382.333 235.5,383C 238.152,383.353 240.152,384.52 241.5,386.5C 240.167,386.167 238.833,385.833 237.5,385.5C 234.797,384.037 231.797,383.204 228.5,383C 229.653,381.117 231.319,380.284 233.5,380.5C 233.327,377.821 232.327,375.487 230.5,373.5C 226.536,371.851 222.869,369.684 219.5,367C 212.339,364.292 205.006,363.792 197.5,365.5C 197.5,364.167 197.5,362.833 197.5,361.5C 200.722,361.892 203.722,361.392 206.5,360C 205.167,359.667 203.833,359.333 202.5,359C 202.982,357.992 203.148,356.825 203,355.5C 205.041,354.577 207.208,354.244 209.5,354.5 Z"/></g>
<g><path style="opacity:1" fill="#7b82a7" d="M 264.5,352.5 C 264.833,352.5 265.167,352.5 265.5,352.5C 265.459,354.184 266.126,356.017 267.5,358C 267.472,359.07 267.139,359.903 266.5,360.5C 266.372,358.91 265.705,357.577 264.5,356.5C 264.446,357.53 264.112,358.697 263.5,360C 265.932,361.087 265.598,361.587 262.5,361.5C 262.5,360.167 262.5,358.833 262.5,357.5C 259.68,357.248 257.014,357.748 254.5,359C 255.711,359.787 256.711,360.454 257.5,361C 255.746,363.827 253.912,363.994 252,361.5C 249.448,364.194 248.281,363.527 248.5,359.5C 249.873,359.657 251.207,359.49 252.5,359C 252.167,358.667 251.833,358.333 251.5,358C 253.061,356.14 254.728,354.974 256.5,354.5C 257.086,354.709 257.586,355.043 258,355.5C 259.784,352.997 261.451,352.997 263,355.5C 263.513,354.473 264.013,353.473 264.5,352.5 Z"/></g>
<g><path style="opacity:1" fill="#231e2a" d="M 136.5,347.5 C 137.305,350.569 136.972,353.735 135.5,357C 137.621,359.798 139.788,362.632 142,365.5C 142.352,367.247 142.852,368.914 143.5,370.5C 139.833,370.5 136.167,370.5 132.5,370.5C 133.568,369.566 134.901,369.232 136.5,369.5C 137.573,368.749 137.74,367.749 137,366.5C 131.619,361.326 129.452,354.993 130.5,347.5C 132.5,347.5 134.5,347.5 136.5,347.5 Z"/></g>
<g><path style="opacity:1" fill="#6086d1" d="M 191.5,364.5 C 191.5,365.167 191.5,365.833 191.5,366.5C 190.791,367.404 189.791,367.737 188.5,367.5C 183.833,367.833 179.167,368.167 174.5,368.5C 173.962,366.883 173.629,365.216 173.5,363.5C 174.091,362.849 174.757,362.182 175.5,361.5C 174.48,359.568 174.313,357.568 175,355.5C 176.125,358.784 177.125,362.117 178,365.5C 178.258,359.043 177.424,352.709 175.5,346.5C 175.833,346.167 176.167,345.833 176.5,345.5C 178.092,350.38 179.259,355.38 180,360.5C 180.464,359.906 180.631,359.239 180.5,358.5C 181.264,360.74 182.098,363.073 183,365.5C 183.847,363.146 184.68,360.812 185.5,358.5C 186.75,358.423 187.583,357.756 188,356.5C 190.197,350.909 192.197,345.242 194,339.5C 194.718,338.549 195.551,338.383 196.5,339C 193.319,345.251 191.152,351.751 190,358.5C 191.171,356.158 192.338,353.824 193.5,351.5C 193.833,351.833 194.167,352.167 194.5,352.5C 192.163,356.445 191.163,360.445 191.5,364.5 Z"/></g>
<g><path style="opacity:1" fill="#605874" d="M 123.5,370.5 C 119.486,370.334 115.486,370.501 111.5,371C 110.944,371.383 110.611,371.883 110.5,372.5C 107.673,372.584 105.006,373.25 102.5,374.5C 97.8783,376.153 93.2117,377.819 88.5,379.5C 90.4818,376.863 93.1485,375.53 96.5,375.5C 95.9478,373.669 95.9478,372.003 96.5,370.5C 99.345,370.167 101.845,369.167 104,367.5C 104.414,367.957 104.914,368.291 105.5,368.5C 108.476,365.5 112.142,363.833 116.5,363.5C 117.91,363.868 118.91,364.701 119.5,366C 116.833,366.333 114.167,366.667 111.5,367C 116.53,367.448 121.53,368.114 126.5,369C 125.263,369.232 124.263,369.732 123.5,370.5 Z"/></g>
<g><path style="opacity:1" fill="#7e6a85" d="M 188.5,367.5 C 184.1,369.104 179.434,369.771 174.5,369.5C 174.5,369.167 174.5,368.833 174.5,368.5C 179.167,368.167 183.833,367.833 188.5,367.5 Z"/></g>
<g><path style="opacity:1" fill="#966152" d="M 237.5,385.5 C 234.14,385.384 230.807,385.051 227.5,384.5C 227.145,380.35 225.812,376.683 223.5,373.5C 219.646,373.406 216.979,371.572 215.5,368C 209.565,366.761 203.565,366.261 197.5,366.5C 197.5,366.167 197.5,365.833 197.5,365.5C 205.006,363.792 212.339,364.292 219.5,367C 222.869,369.684 226.536,371.851 230.5,373.5C 232.327,375.487 233.327,377.821 233.5,380.5C 231.319,380.284 229.653,381.117 228.5,383C 231.797,383.204 234.797,384.037 237.5,385.5 Z"/></g>
<g><path style="opacity:1" fill="#2d2f4e" d="M 249.5,319.5 C 250.167,319.5 250.833,319.5 251.5,319.5C 251.649,320.552 251.483,321.552 251,322.5C 247.833,326 244.667,329.5 241.5,333C 242.866,335.382 242.533,337.548 240.5,339.5C 241.167,340.167 241.833,340.833 242.5,341.5C 239.785,343.551 239.952,345.217 243,346.5C 244.529,345.271 245.696,343.771 246.5,342C 247.167,341.333 247.833,341.333 248.5,342C 247.315,345.523 245.315,348.523 242.5,351C 243,351.5 243.5,352 244,352.5C 248.302,351.311 252.802,349.644 257.5,347.5C 258.95,348.85 259.617,350.516 259.5,352.5C 261.167,352.5 262.833,352.5 264.5,352.5C 264.013,353.473 263.513,354.473 263,355.5C 261.451,352.997 259.784,352.997 258,355.5C 257.586,355.043 257.086,354.709 256.5,354.5C 254.728,354.974 253.061,356.14 251.5,358C 251.833,358.333 252.167,358.667 252.5,359C 251.207,359.49 249.873,359.657 248.5,359.5C 248.281,363.527 249.448,364.194 252,361.5C 253.912,363.994 255.746,363.827 257.5,361C 256.711,360.454 255.711,359.787 254.5,359C 257.014,357.748 259.68,357.248 262.5,357.5C 262.5,358.833 262.5,360.167 262.5,361.5C 265.598,361.587 265.932,361.087 263.5,360C 264.112,358.697 264.446,357.53 264.5,356.5C 265.705,357.577 266.372,358.91 266.5,360.5C 267.165,364.137 267.832,367.803 268.5,371.5C 266.955,372.452 265.288,372.785 263.5,372.5C 261.633,376.701 260.966,381.034 261.5,385.5C 262.726,388.016 264.226,390.349 266,392.5C 266.82,394.728 266.487,396.728 265,398.5C 258.804,391.152 250.97,387.152 241.5,386.5C 240.152,384.52 238.152,383.353 235.5,383C 236.167,382.333 236.833,381.667 237.5,381C 235.429,377.273 233.429,373.44 231.5,369.5C 230.777,367.218 230.443,364.884 230.5,362.5C 229.5,362.5 228.5,362.5 227.5,362.5C 227.67,361.178 227.337,360.011 226.5,359C 227.381,358.292 228.047,357.458 228.5,356.5C 229.735,356.279 230.735,355.612 231.5,354.5C 232.167,352.833 232.833,351.167 233.5,349.5C 233.986,341.333 235.319,333.333 237.5,325.5C 241.462,323.519 245.462,321.519 249.5,319.5 Z"/></g>
<g><path style="opacity:1" fill="#d88c71" d="M 224.5,380.5 C 221.112,380.21 218.445,378.71 216.5,376C 210.529,372.527 204.695,372.694 199,376.5C 198.667,376.167 198.333,375.833 198,375.5C 192.24,376.794 186.407,377.794 180.5,378.5C 170.63,377.557 160.963,378.724 151.5,382C 146.539,383.855 144.372,387.355 145,392.5C 147.693,392.953 149.527,394.453 150.5,397C 159.433,398.077 168.1,397.077 176.5,394C 179.758,391.539 183.425,389.873 187.5,389C 188.167,387.667 189.167,386.667 190.5,386C 197.368,383.528 204.368,382.195 211.5,382C 212.167,382.333 212.833,382.667 213.5,383C 212.748,383.671 212.414,384.504 212.5,385.5C 205.056,384.038 198.056,385.204 191.5,389C 200.69,387.688 210.023,387.188 219.5,387.5C 222.846,388.271 226.346,388.938 230,389.5C 232.266,391.016 233.766,393.016 234.5,395.5C 238.998,397.234 243.664,398.734 248.5,400C 249.308,402.088 250.308,404.088 251.5,406C 250.12,407.324 249.786,408.657 250.5,410C 245.245,411.069 239.911,411.903 234.5,412.5C 230.626,414.002 230.959,414.669 235.5,414.5C 235.082,415.222 234.416,415.722 233.5,416C 229.5,416.167 225.5,416.333 221.5,416.5C 210.526,415.171 199.526,414.171 188.5,413.5C 187.833,413.5 187.167,413.5 186.5,413.5C 186.5,412.833 186.167,412.5 185.5,412.5C 185.082,411.778 184.416,411.278 183.5,411C 180.854,410.503 178.187,410.336 175.5,410.5C 169.77,409.421 164.103,408.087 158.5,406.5C 158.167,406.5 157.833,406.5 157.5,406.5C 157.5,405.833 157.833,405.5 158.5,405.5C 160.5,404.5 162.5,403.5 164.5,402.5C 166.948,403.473 169.615,403.806 172.5,403.5C 171.571,404.315 170.571,405.148 169.5,406C 174.167,406.667 178.833,407.333 183.5,408C 185.342,409.344 187.008,410.844 188.5,412.5C 201.782,412.377 215.115,412.21 228.5,412C 232.311,410.261 236.311,409.428 240.5,409.5C 240.55,406.802 239.55,404.636 237.5,403C 238.731,401.817 238.731,400.651 237.5,399.5C 236.252,398.96 235.085,398.293 234,397.5C 233.167,394 231,391.833 227.5,391C 219.414,389.525 211.414,389.025 203.5,389.5C 198.841,390.066 194.174,390.566 189.5,391C 187.509,391.374 185.842,392.207 184.5,393.5C 181.574,394.698 178.574,395.698 175.5,396.5C 171.008,398.297 166.342,399.631 161.5,400.5C 150.199,402.542 138.866,402.375 127.5,400C 126.331,398.164 124.664,396.998 122.5,396.5C 119.298,397.127 116.131,397.794 113,398.5C 110.864,397.97 109.03,398.803 107.5,401C 99.8746,403.04 97.5413,400.373 100.5,393C 96.9612,389.605 95.6278,385.438 96.5,380.5C 96.369,379.761 96.5357,379.094 97,378.5C 99.0153,377.303 100.849,375.97 102.5,374.5C 105.006,373.25 107.673,372.584 110.5,372.5C 121.022,372.713 131.522,373.379 142,374.5C 155.13,373.654 168.296,372.654 181.5,371.5C 183.957,371.551 186.457,371.884 189,372.5C 190.63,371.287 192.464,370.454 194.5,370C 199.489,369.501 204.489,369.334 209.5,369.5C 209.5,370.5 209.5,371.5 209.5,372.5C 212.187,372.336 214.854,372.503 217.5,373C 218.893,374.171 219.727,375.671 220,377.5C 221.878,378.053 223.378,379.053 224.5,380.5 Z"/></g>
<g><path style="opacity:1" fill="#342b35" d="M 256.5,316.5 C 258.226,318.942 259.726,321.609 261,324.5C 263.209,332.292 265.709,339.959 268.5,347.5C 267.978,348.607 267.645,349.774 267.5,351C 273.458,374.308 274.791,397.808 271.5,421.5C 270.417,421.539 269.417,421.873 268.5,422.5C 267.772,424.193 266.772,425.693 265.5,427C 261.858,428.558 258.191,428.891 254.5,428C 256.618,429.049 258.284,430.549 259.5,432.5C 257.313,431.242 254.98,430.242 252.5,429.5C 252.818,426.471 251.151,424.805 247.5,424.5C 247.167,424.5 246.833,424.5 246.5,424.5C 246.423,423.25 245.756,422.417 244.5,422C 247.5,421.667 250.5,421.333 253.5,421C 251.406,419.648 249.073,419.148 246.5,419.5C 252.279,418.104 258.279,417.271 264.5,417C 271.574,409.896 270.908,403.729 262.5,398.5C 261.71,397.206 260.71,396.039 259.5,395C 253.329,392.413 247.329,389.58 241.5,386.5C 250.97,387.152 258.804,391.152 265,398.5C 266.487,396.728 266.82,394.728 266,392.5C 264.226,390.349 262.726,388.016 261.5,385.5C 260.966,381.034 261.633,376.701 263.5,372.5C 265.288,372.785 266.955,372.452 268.5,371.5C 267.832,367.803 267.165,364.137 266.5,360.5C 267.139,359.903 267.472,359.07 267.5,358C 266.126,356.017 265.459,354.184 265.5,352.5C 264.047,349.647 262.881,346.647 262,343.5C 261.107,344.711 260.274,344.711 259.5,343.5C 260.912,340.098 261.912,336.598 262.5,333C 261.929,331.795 261.262,330.628 260.5,329.5C 259.914,329.709 259.414,330.043 259,330.5C 257.441,328.783 256.608,326.783 256.5,324.5C 255.167,324.5 253.833,324.5 252.5,324.5C 252.5,322.833 252.5,321.167 252.5,319.5C 253.833,319.5 255.167,319.5 256.5,319.5C 256.5,318.5 256.5,317.5 256.5,316.5 Z"/></g>
<g><path style="opacity:1" fill="#eb9f80" d="M 224.5,380.5 C 225.171,381.847 225.171,383.014 224.5,384C 220.582,385.156 216.582,385.656 212.5,385.5C 212.414,384.504 212.748,383.671 213.5,383C 212.833,382.667 212.167,382.333 211.5,382C 204.368,382.195 197.368,383.528 190.5,386C 189.167,386.667 188.167,387.667 187.5,389C 183.425,389.873 179.758,391.539 176.5,394C 168.1,397.077 159.433,398.077 150.5,397C 149.527,394.453 147.693,392.953 145,392.5C 144.372,387.355 146.539,383.855 151.5,382C 160.963,378.724 170.63,377.557 180.5,378.5C 186.407,377.794 192.24,376.794 198,375.5C 198.333,375.833 198.667,376.167 199,376.5C 204.695,372.694 210.529,372.527 216.5,376C 218.445,378.71 221.112,380.21 224.5,380.5 Z"/></g>
<g><path style="opacity:1" fill="#b5735c" d="M 191.5,366.5 C 193.5,366.5 195.5,366.5 197.5,366.5C 203.565,366.261 209.565,366.761 215.5,368C 216.979,371.572 219.646,373.406 223.5,373.5C 225.812,376.683 227.145,380.35 227.5,384.5C 230.807,385.051 234.14,385.384 237.5,385.5C 238.833,385.833 240.167,386.167 241.5,386.5C 247.329,389.58 253.329,392.413 259.5,395C 260.71,396.039 261.71,397.206 262.5,398.5C 261.903,398.735 261.57,399.235 261.5,400C 263.394,401.775 265.061,403.775 266.5,406C 264.866,408.879 263.532,411.879 262.5,415C 245.256,417.661 227.922,418.494 210.5,417.5C 208.833,417.5 207.167,417.5 205.5,417.5C 199.875,415.982 194.208,414.649 188.5,413.5C 199.526,414.171 210.526,415.171 221.5,416.5C 225.5,416.333 229.5,416.167 233.5,416C 234.416,415.722 235.082,415.222 235.5,414.5C 243.456,413.339 251.456,412.506 259.5,412C 258.062,411.781 256.729,411.281 255.5,410.5C 256.908,409.757 258.241,408.923 259.5,408C 258.994,402.222 255.994,398.722 250.5,397.5C 250.5,396.5 250.5,395.5 250.5,394.5C 246.562,394.365 243.228,392.865 240.5,390C 240.833,389.667 241.167,389.333 241.5,389C 239.432,388.313 237.432,388.48 235.5,389.5C 230.414,386.651 225.081,385.985 219.5,387.5C 210.023,387.188 200.69,387.688 191.5,389C 198.056,385.204 205.056,384.038 212.5,385.5C 216.582,385.656 220.582,385.156 224.5,384C 225.171,383.014 225.171,381.847 224.5,380.5C 223.378,379.053 221.878,378.053 220,377.5C 219.727,375.671 218.893,374.171 217.5,373C 214.854,372.503 212.187,372.336 209.5,372.5C 209.5,371.5 209.5,370.5 209.5,369.5C 204.489,369.334 199.489,369.501 194.5,370C 192.464,370.454 190.63,371.287 189,372.5C 186.457,371.884 183.957,371.551 181.5,371.5C 168.296,372.654 155.13,373.654 142,374.5C 131.522,373.379 121.022,372.713 110.5,372.5C 110.611,371.883 110.944,371.383 111.5,371C 115.486,370.501 119.486,370.334 123.5,370.5C 126.5,370.5 129.5,370.5 132.5,370.5C 136.167,370.5 139.833,370.5 143.5,370.5C 152.584,370.804 161.584,370.471 170.5,369.5C 171.833,369.5 173.167,369.5 174.5,369.5C 179.434,369.771 184.1,369.104 188.5,367.5C 189.791,367.737 190.791,367.404 191.5,366.5 Z"/></g>
<g><path style="opacity:1" fill="#362420" d="M 102.5,374.5 C 100.849,375.97 99.0153,377.303 97,378.5C 96.5357,379.094 96.369,379.761 96.5,380.5C 95.3557,387.346 95.3557,394.346 96.5,401.5C 92.6278,399.807 89.1278,397.474 86,394.5C 85.2938,390.113 85.4604,385.78 86.5,381.5C 87.5,381.167 88.1667,380.5 88.5,379.5C 93.2117,377.819 97.8783,376.153 102.5,374.5 Z"/></g>
<g><path style="opacity:1" fill="#bb785d" d="M 96.5,380.5 C 95.6278,385.438 96.9612,389.605 100.5,393C 97.5413,400.373 99.8746,403.04 107.5,401C 109.03,398.803 110.864,397.97 113,398.5C 116.131,397.794 119.298,397.127 122.5,396.5C 124.664,396.998 126.331,398.164 127.5,400C 138.866,402.375 150.199,402.542 161.5,400.5C 158.008,402.956 154.008,404.123 149.5,404C 133.483,404.262 117.483,404.762 101.5,405.5C 99.2512,404.92 97.5846,403.587 96.5,401.5C 95.3557,394.346 95.3557,387.346 96.5,380.5 Z"/></g>
<g><path style="opacity:1" fill="#e89879" d="M 172.5,403.5 C 177.676,404.559 182.843,404.559 188,403.5C 190.194,404.079 192.36,404.746 194.5,405.5C 196.044,405.21 197.377,404.544 198.5,403.5C 204.016,405.129 209.183,404.462 214,401.5C 214.667,402.167 215.333,402.833 216,403.5C 219.679,401.721 223.179,401.721 226.5,403.5C 227.553,402.562 228.22,401.395 228.5,400C 227.851,398.31 227.851,396.477 228.5,394.5C 225.797,394.045 223.13,393.378 220.5,392.5C 211.84,393.802 203.174,393.802 194.5,392.5C 192.161,392.669 189.994,393.336 188,394.5C 186.989,393.663 185.822,393.33 184.5,393.5C 185.842,392.207 187.509,391.374 189.5,391C 194.174,390.566 198.841,390.066 203.5,389.5C 211.414,389.025 219.414,389.525 227.5,391C 231,391.833 233.167,394 234,397.5C 235.085,398.293 236.252,398.96 237.5,399.5C 238.731,400.651 238.731,401.817 237.5,403C 239.55,404.636 240.55,406.802 240.5,409.5C 236.311,409.428 232.311,410.261 228.5,412C 215.115,412.21 201.782,412.377 188.5,412.5C 187.008,410.844 185.342,409.344 183.5,408C 178.833,407.333 174.167,406.667 169.5,406C 170.571,405.148 171.571,404.315 172.5,403.5 Z"/></g>
<g><path style="opacity:1" fill="#f5a888" d="M 172.5,403.5 C 169.615,403.806 166.948,403.473 164.5,402.5C 168.362,400.738 172.028,398.738 175.5,396.5C 178.574,395.698 181.574,394.698 184.5,393.5C 185.822,393.33 186.989,393.663 188,394.5C 189.994,393.336 192.161,392.669 194.5,392.5C 203.174,393.802 211.84,393.802 220.5,392.5C 223.13,393.378 225.797,394.045 228.5,394.5C 227.851,396.477 227.851,398.31 228.5,400C 228.22,401.395 227.553,402.562 226.5,403.5C 223.179,401.721 219.679,401.721 216,403.5C 215.333,402.833 214.667,402.167 214,401.5C 209.183,404.462 204.016,405.129 198.5,403.5C 197.377,404.544 196.044,405.21 194.5,405.5C 192.36,404.746 190.194,404.079 188,403.5C 182.843,404.559 177.676,404.559 172.5,403.5 Z"/></g>
<g><path style="opacity:1" fill="#ca826a" d="M 235.5,414.5 C 230.959,414.669 230.626,414.002 234.5,412.5C 239.911,411.903 245.245,411.069 250.5,410C 249.786,408.657 250.12,407.324 251.5,406C 250.308,404.088 249.308,402.088 248.5,400C 243.664,398.734 238.998,397.234 234.5,395.5C 233.766,393.016 232.266,391.016 230,389.5C 226.346,388.938 222.846,388.271 219.5,387.5C 225.081,385.985 230.414,386.651 235.5,389.5C 237.432,388.48 239.432,388.313 241.5,389C 241.167,389.333 240.833,389.667 240.5,390C 243.228,392.865 246.562,394.365 250.5,394.5C 250.5,395.5 250.5,396.5 250.5,397.5C 255.994,398.722 258.994,402.222 259.5,408C 258.241,408.923 256.908,409.757 255.5,410.5C 256.729,411.281 258.062,411.781 259.5,412C 251.456,412.506 243.456,413.339 235.5,414.5 Z"/></g>
<g><path style="opacity:0.984" fill="#8e573f" d="M 175.5,396.5 C 172.028,398.738 168.362,400.738 164.5,402.5C 162.5,403.5 160.5,404.5 158.5,405.5C 157.378,404.844 156.045,404.511 154.5,404.5C 148.033,405.572 141.7,406.572 135.5,407.5C 129.833,407.5 124.167,407.5 118.5,407.5C 112.57,407.872 106.903,407.205 101.5,405.5C 117.483,404.762 133.483,404.262 149.5,404C 154.008,404.123 158.008,402.956 161.5,400.5C 166.342,399.631 171.008,398.297 175.5,396.5 Z"/></g>
<g><path style="opacity:1" fill="#5f392f" d="M 158.5,405.5 C 157.833,405.5 157.5,405.833 157.5,406.5C 150.167,406.833 142.833,407.167 135.5,407.5C 141.7,406.572 148.033,405.572 154.5,404.5C 156.045,404.511 157.378,404.844 158.5,405.5 Z"/></g>
<g><path style="opacity:1" fill="#2c2023" d="M 157.5,406.5 C 157.833,406.5 158.167,406.5 158.5,406.5C 157.5,407.167 156.5,407.833 155.5,408.5C 151.998,409.917 148.331,410.584 144.5,410.5C 137.496,411.144 130.496,412.144 123.5,413.5C 122.151,413.154 120.817,412.821 119.5,412.5C 119.634,410.708 119.301,409.042 118.5,407.5C 124.167,407.5 129.833,407.5 135.5,407.5C 142.833,407.167 150.167,406.833 157.5,406.5 Z"/></g>
<g><path style="opacity:1" fill="#b68884" d="M 175.5,410.5 C 178.187,410.336 180.854,410.503 183.5,411C 184.416,411.278 185.082,411.778 185.5,412.5C 184.265,412.721 183.265,413.388 182.5,414.5C 181.579,412.244 179.912,411.244 177.5,411.5C 176.508,411.672 175.842,411.338 175.5,410.5 Z"/></g>
<g><path style="opacity:1" fill="#6b89ce" d="M 177.5,411.5 C 179.912,411.244 181.579,412.244 182.5,414.5C 183.265,413.388 184.265,412.721 185.5,412.5C 186.167,412.5 186.5,412.833 186.5,413.5C 186.5,415.5 186.5,417.5 186.5,419.5C 184.233,417.824 181.9,417.157 179.5,417.5C 178.548,419.045 178.215,420.712 178.5,422.5C 177.518,419.038 177.185,415.371 177.5,411.5 Z"/></g>
<g><path style="opacity:1" fill="#976451" d="M 262.5,398.5 C 270.908,403.729 271.574,409.896 264.5,417C 258.279,417.271 252.279,418.104 246.5,419.5C 236.828,419.666 227.161,419.5 217.5,419C 214.964,418.814 212.631,418.314 210.5,417.5C 227.922,418.494 245.256,417.661 262.5,415C 263.532,411.879 264.866,408.879 266.5,406C 265.061,403.775 263.394,401.775 261.5,400C 261.57,399.235 261.903,398.735 262.5,398.5 Z"/></g>
<g><path style="opacity:1" fill="#444059" d="M 144.5,410.5 C 150.743,418.413 157.743,425.746 165.5,432.5C 166.688,434.722 167.688,437.055 168.5,439.5C 163.037,434.86 157.703,429.36 152.5,423C 149.16,422.836 146.66,421.336 145,418.5C 143.887,419.711 142.72,419.711 141.5,418.5C 140.5,419.5 139.5,420.5 138.5,421.5C 139.167,422.833 139.833,424.167 140.5,425.5C 138.914,427.173 138.247,429.173 138.5,431.5C 137.542,431.047 136.708,430.381 136,429.5C 135.605,433.019 134.605,436.352 133,439.5C 132.259,440.641 131.425,440.641 130.5,439.5C 130.167,440.167 129.833,440.833 129.5,441.5C 130.043,442.864 130.21,444.197 130,445.5C 129.282,444.549 128.449,444.383 127.5,445C 125.237,446.617 123.237,448.45 121.5,450.5C 119.756,454.514 117.422,457.514 114.5,459.5C 114.113,455.701 113.779,452.034 113.5,448.5C 114.858,436.38 116.858,424.38 119.5,412.5C 120.817,412.821 122.151,413.154 123.5,413.5C 130.496,412.144 137.496,411.144 144.5,410.5 Z"/></g>
<g><path style="opacity:1" fill="#595472" d="M 155.5,408.5 C 157.828,410.381 158.161,412.714 156.5,415.5C 157.36,417.272 158.693,418.605 160.5,419.5C 160.167,420.167 159.833,420.833 159.5,421.5C 160.247,421.736 161.08,422.07 162,422.5C 163.46,425.748 164.626,429.081 165.5,432.5C 157.743,425.746 150.743,418.413 144.5,410.5C 148.331,410.584 151.998,409.917 155.5,408.5 Z"/></g>
<g><path style="opacity:1" fill="#666282" d="M 158.5,406.5 C 164.103,408.087 169.77,409.421 175.5,410.5C 175.842,411.338 176.508,411.672 177.5,411.5C 177.185,415.371 177.518,419.038 178.5,422.5C 181.238,423.035 183.072,422.035 184,419.5C 185.114,423.456 185.947,423.456 186.5,419.5C 186.5,417.5 186.5,415.5 186.5,413.5C 187.167,413.5 187.833,413.5 188.5,413.5C 194.208,414.649 199.875,415.982 205.5,417.5C 211.01,419.011 216.677,420.345 222.5,421.5C 221.385,425.979 220.385,430.479 219.5,435C 220.007,437.341 221.174,437.841 223,436.5C 224.688,437.325 224.855,438.325 223.5,439.5C 223.977,440.478 224.643,441.311 225.5,442C 219.952,442.484 214.286,443.484 208.5,445C 207.406,446.78 206.406,448.614 205.5,450.5C 203.833,451.833 202.167,451.833 200.5,450.5C 198.625,451.409 197.292,452.743 196.5,454.5C 196.784,456.415 196.451,458.081 195.5,459.5C 195.5,456.833 195.5,454.167 195.5,451.5C 196.477,448.713 196.81,445.713 196.5,442.5C 195.041,442.567 193.708,442.234 192.5,441.5C 190.281,438.144 187.115,436.144 183,435.5C 182.667,435.833 182.333,436.167 182,436.5C 182.215,433.189 182.215,429.856 182,426.5C 181.055,430.114 180.388,433.781 180,437.5C 178.855,438.636 177.688,439.636 176.5,440.5C 174.708,440.366 173.042,440.699 171.5,441.5C 170.222,441.218 169.222,440.551 168.5,439.5C 167.688,437.055 166.688,434.722 165.5,432.5C 164.626,429.081 163.46,425.748 162,422.5C 161.08,422.07 160.247,421.736 159.5,421.5C 159.833,420.833 160.167,420.167 160.5,419.5C 158.693,418.605 157.36,417.272 156.5,415.5C 158.161,412.714 157.828,410.381 155.5,408.5C 156.5,407.833 157.5,407.167 158.5,406.5 Z"/></g>
<g><path style="opacity:1" fill="#cad6f0" d="M 186.5,419.5 C 185.947,423.456 185.114,423.456 184,419.5C 183.072,422.035 181.238,423.035 178.5,422.5C 178.215,420.712 178.548,419.045 179.5,417.5C 181.9,417.157 184.233,417.824 186.5,419.5 Z"/></g>
<g><path style="opacity:1" fill="#27181b" d="M 205.5,417.5 C 207.167,417.5 208.833,417.5 210.5,417.5C 212.631,418.314 214.964,418.814 217.5,419C 227.161,419.5 236.828,419.666 246.5,419.5C 249.073,419.148 251.406,419.648 253.5,421C 250.5,421.333 247.5,421.667 244.5,422C 245.756,422.417 246.423,423.25 246.5,424.5C 238.495,423.784 230.495,422.784 222.5,421.5C 216.677,420.345 211.01,419.011 205.5,417.5 Z"/></g>
<g><path style="opacity:1" fill="#7a7172" d="M 266.5,418.5 C 267.525,418.897 267.692,419.563 267,420.5C 263.528,423.658 259.694,424.158 255.5,422C 258.167,421.667 260.833,421.333 263.5,421C 264.942,420.623 265.942,419.79 266.5,418.5 Z"/></g>
<g><path style="opacity:1" fill="#444264" d="M 168.5,439.5 C 169.222,440.551 170.222,441.218 171.5,441.5C 171.81,444.713 171.477,447.713 170.5,450.5C 170.489,448.983 169.823,447.816 168.5,447C 161.476,445.165 154.476,443.332 147.5,441.5C 146.583,442.127 145.583,442.461 144.5,442.5C 141.217,439.546 139.217,435.88 138.5,431.5C 138.247,429.173 138.914,427.173 140.5,425.5C 139.833,424.167 139.167,422.833 138.5,421.5C 139.5,420.5 140.5,419.5 141.5,418.5C 142.72,419.711 143.887,419.711 145,418.5C 146.66,421.336 149.16,422.836 152.5,423C 157.703,429.36 163.037,434.86 168.5,439.5 Z"/></g>
<g><path style="opacity:1" fill="#6c5e60" d="M 271.5,421.5 C 273.037,429.483 269.537,433.483 261,433.5C 260.235,433.43 259.735,433.097 259.5,432.5C 258.284,430.549 256.618,429.049 254.5,428C 258.191,428.891 261.858,428.558 265.5,427C 266.772,425.693 267.772,424.193 268.5,422.5C 269.417,421.873 270.417,421.539 271.5,421.5 Z"/></g>
<g><path style="opacity:0.514" fill="#75646b" d="M 247.5,424.5 C 251.151,424.805 252.818,426.471 252.5,429.5C 252.736,432.609 252.403,435.609 251.5,438.5C 249.549,434.126 248.216,429.46 247.5,424.5 Z"/></g>
<g><path style="opacity:1" fill="#888699" d="M 192.5,441.5 C 187.073,441.782 181.74,441.449 176.5,440.5C 177.688,439.636 178.855,438.636 180,437.5C 180.388,433.781 181.055,430.114 182,426.5C 182.215,429.856 182.215,433.189 182,436.5C 182.333,436.167 182.667,435.833 183,435.5C 187.115,436.144 190.281,438.144 192.5,441.5 Z"/></g>
<g><path style="opacity:1" fill="#5a5a7b" d="M 222.5,421.5 C 230.495,422.784 238.495,423.784 246.5,424.5C 246.833,424.5 247.167,424.5 247.5,424.5C 248.216,429.46 249.549,434.126 251.5,438.5C 251.5,441.167 251.5,443.833 251.5,446.5C 250.351,446.209 249.684,445.376 249.5,444C 249.064,440.782 248.398,437.616 247.5,434.5C 245.45,435.077 244.45,436.41 244.5,438.5C 243.167,438.5 241.833,438.5 240.5,438.5C 236.775,443 233.775,448 231.5,453.5C 231.565,453.062 231.399,452.728 231,452.5C 229.842,452.998 229.009,453.831 228.5,455C 229.196,457.407 229.529,459.74 229.5,462C 225.365,463.761 223.365,466.927 223.5,471.5C 222.167,471.5 220.833,471.5 219.5,471.5C 219.643,469.738 219.309,468.071 218.5,466.5C 218.977,465.522 219.643,464.689 220.5,464C 220.5,462.667 220.5,461.333 220.5,460C 219.551,459.383 218.718,459.549 218,460.5C 217.195,458.099 216.362,458.266 215.5,461C 212.807,462.965 209.973,463.799 207,463.5C 206.293,461.919 205.46,460.419 204.5,459C 205.449,458.383 206.282,458.549 207,459.5C 209.203,457.331 210.036,454.665 209.5,451.5C 205.931,451.878 203.097,453.545 201,456.5C 199.67,455.418 198.17,454.751 196.5,454.5C 197.292,452.743 198.625,451.409 200.5,450.5C 202.167,451.833 203.833,451.833 205.5,450.5C 206.406,448.614 207.406,446.78 208.5,445C 214.286,443.484 219.952,442.484 225.5,442C 224.643,441.311 223.977,440.478 223.5,439.5C 224.855,438.325 224.688,437.325 223,436.5C 221.174,437.841 220.007,437.341 219.5,435C 220.385,430.479 221.385,425.979 222.5,421.5 Z"/></g>
<g><path style="opacity:1" fill="#9f91c3" d="M 176.5,440.5 C 181.74,441.449 187.073,441.782 192.5,441.5C 193.708,442.234 195.041,442.567 196.5,442.5C 196.81,445.713 196.477,448.713 195.5,451.5C 195.425,448.794 195.092,446.127 194.5,443.5C 191.774,443.264 189.441,444.097 187.5,446C 184.854,446.497 182.187,446.664 179.5,446.5C 179.241,442.932 177.241,441.599 173.5,442.5C 172.615,451.668 171.949,461.001 171.5,470.5C 171.158,471.338 170.492,471.672 169.5,471.5C 169.668,464.49 170.001,457.49 170.5,450.5C 171.477,447.713 171.81,444.713 171.5,441.5C 173.042,440.699 174.708,440.366 176.5,440.5 Z"/></g>
<g><path style="opacity:1" fill="#515378" d="M 231.5,453.5 C 231.187,456.247 231.52,458.914 232.5,461.5C 233.696,461.154 233.696,460.654 232.5,460C 233.448,459.517 234.448,459.351 235.5,459.5C 237.42,472.464 237.754,485.464 236.5,498.5C 236.5,500.167 236.5,501.833 236.5,503.5C 233.138,503.93 230.305,502.93 228,500.5C 227.667,500.833 227.333,501.167 227,501.5C 225.47,499.774 224.47,497.774 224,495.5C 220.342,492.061 216.342,489.061 212,486.5C 211.027,484.608 210.36,482.608 210,480.5C 208.644,479.62 207.144,479.286 205.5,479.5C 205.649,478.448 205.483,477.448 205,476.5C 204.667,476.833 204.333,477.167 204,477.5C 202.115,475.98 199.949,474.98 197.5,474.5C 196.833,470.687 196.166,467.021 195.5,463.5C 195.5,462.167 195.5,460.833 195.5,459.5C 196.451,458.081 196.784,456.415 196.5,454.5C 198.17,454.751 199.67,455.418 201,456.5C 203.097,453.545 205.931,451.878 209.5,451.5C 210.036,454.665 209.203,457.331 207,459.5C 206.282,458.549 205.449,458.383 204.5,459C 205.46,460.419 206.293,461.919 207,463.5C 209.973,463.799 212.807,462.965 215.5,461C 216.362,458.266 217.195,458.099 218,460.5C 218.718,459.549 219.551,459.383 220.5,460C 220.5,461.333 220.5,462.667 220.5,464C 219.643,464.689 218.977,465.522 218.5,466.5C 219.309,468.071 219.643,469.738 219.5,471.5C 220.833,471.5 222.167,471.5 223.5,471.5C 223.365,466.927 225.365,463.761 229.5,462C 229.529,459.74 229.196,457.407 228.5,455C 229.009,453.831 229.842,452.998 231,452.5C 231.399,452.728 231.565,453.062 231.5,453.5 Z"/></g>
<g><path style="opacity:1" fill="#222841" d="M 145.5,452.5 C 145.34,454.199 145.506,455.866 146,457.5C 148.286,462.474 150.62,467.474 153,472.5C 155.333,474.5 157.667,476.5 160,478.5C 159.349,485.825 162.515,490.159 169.5,491.5C 169.646,493.942 168.813,494.609 167,493.5C 166.751,494.624 166.251,495.624 165.5,496.5C 159.342,490.091 152.009,485.758 143.5,483.5C 141.476,481.31 139.643,478.977 138,476.5C 138.333,479.167 138.667,481.833 139,484.5C 136.813,482.138 134.98,479.471 133.5,476.5C 135.305,474.14 134.805,472.473 132,471.5C 131.308,472.025 130.808,472.692 130.5,473.5C 131.417,476.758 131.751,480.091 131.5,483.5C 132.873,483.343 134.207,483.51 135.5,484C 133.527,484.495 131.527,484.662 129.5,484.5C 129.833,488.5 130.167,492.5 130.5,496.5C 131.5,496.5 132.5,496.5 133.5,496.5C 133.338,494.473 133.505,492.473 134,490.5C 134.191,492.708 134.691,494.708 135.5,496.5C 134.082,498.308 132.082,498.975 129.5,498.5C 130.036,501.665 129.203,504.331 127,506.5C 126.51,505.207 126.343,503.873 126.5,502.5C 125.5,502.5 124.5,502.5 123.5,502.5C 123.5,500.833 123.5,499.167 123.5,497.5C 122.5,497.5 121.5,497.5 120.5,497.5C 120.739,499.467 120.406,501.301 119.5,503C 122.144,504.817 123.81,507.317 124.5,510.5C 123.975,511.192 123.308,511.692 122.5,512C 123.337,513.011 123.67,514.178 123.5,515.5C 121.08,515.708 118.747,515.374 116.5,514.5C 115.513,517.768 115.18,521.102 115.5,524.5C 118.167,524.5 120.833,524.5 123.5,524.5C 123.5,525.5 123.5,526.5 123.5,527.5C 126.187,528.664 128.52,530.497 130.5,533C 133.797,532.816 135.797,534.316 136.5,537.5C 139.452,538.068 142.119,539.234 144.5,541C 143.216,541.684 142.049,541.517 141,540.5C 140.833,541 140.667,541.5 140.5,542C 141.952,543.565 143.619,544.898 145.5,546C 143.269,548.748 142.269,551.915 142.5,555.5C 145.198,555.55 147.364,554.55 149,552.5C 149.241,555.077 150.074,557.744 151.5,560.5C 146.37,558.785 141.036,557.785 135.5,557.5C 134.074,556.198 132.741,554.698 131.5,553C 133.686,552.396 133.852,551.23 132,549.5C 130.829,548.107 129.329,547.273 127.5,547C 128.167,546.667 128.833,546.333 129.5,546C 127.649,545.163 125.816,544.329 124,543.5C 122.261,551.367 117.428,555.367 109.5,555.5C 107.81,551.813 108.31,551.146 111,553.5C 111.265,551.837 110.765,550.337 109.5,549C 110.38,547.644 110.714,546.144 110.5,544.5C 109.325,544.719 108.325,544.386 107.5,543.5C 109.483,539.048 110.983,534.381 112,529.5C 113.067,528.809 114.234,528.309 115.5,528C 114.692,527.692 114.025,527.192 113.5,526.5C 114.606,522.223 114.772,517.89 114,513.5C 112.584,512.282 112.751,510.949 114.5,509.5C 114.246,507.039 113.246,505.039 111.5,503.5C 113.981,503.677 115.814,502.677 117,500.5C 118.911,491.144 120.911,481.811 123,472.5C 125.427,471.219 127.927,470.219 130.5,469.5C 130.721,465.205 129.388,464.538 126.5,467.5C 125.376,466.086 124.376,464.586 123.5,463C 124.731,461.595 126.064,460.429 127.5,459.5C 129.467,459.739 131.301,459.406 133,458.5C 133.617,457.551 133.451,456.718 132.5,456C 134.729,450.826 137.062,445.66 139.5,440.5C 140.466,442.396 140.799,444.396 140.5,446.5C 141.822,446.33 142.989,446.663 144,447.5C 144.352,449.247 144.852,450.914 145.5,452.5 Z"/></g>
<g><path style="opacity:1" fill="#33385d" d="M 170.5,450.5 C 170.001,457.49 169.668,464.49 169.5,471.5C 169.5,472.833 169.5,474.167 169.5,475.5C 169.167,475.5 168.833,475.5 168.5,475.5C 167.844,476.278 167.011,476.944 166,477.5C 164.355,475.855 162.688,474.188 161,472.5C 158.682,468.38 156.848,464.047 155.5,459.5C 153.833,459.5 152.167,459.5 150.5,459.5C 149.56,456.286 148.06,453.286 146,450.5C 145.242,448.231 145.409,446.064 146.5,444C 145.584,443.722 144.918,443.222 144.5,442.5C 145.583,442.461 146.583,442.127 147.5,441.5C 154.476,443.332 161.476,445.165 168.5,447C 169.823,447.816 170.489,448.983 170.5,450.5 Z"/></g>
<g><path style="opacity:1" fill="#936fce" d="M 173.5,442.5 C 177.241,441.599 179.241,442.932 179.5,446.5C 182.187,446.664 184.854,446.497 187.5,446C 189.441,444.097 191.774,443.264 194.5,443.5C 195.092,446.127 195.425,448.794 195.5,451.5C 194.883,451.611 194.383,451.944 194,452.5C 193.503,454.81 193.337,457.143 193.5,459.5C 192.539,461.265 192.205,463.265 192.5,465.5C 191.833,465.5 191.5,465.167 191.5,464.5C 190.21,463.065 188.544,462.065 186.5,461.5C 187.63,460.378 188.297,459.044 188.5,457.5C 190.695,452.838 189.195,449.838 184,448.5C 182.2,449.32 180.366,449.986 178.5,450.5C 177.315,454.539 175.815,458.539 174,462.5C 173.5,455.842 173.334,449.175 173.5,442.5 Z"/></g>
<g><path style="opacity:1" fill="#e4d1f0" d="M 188.5,457.5 C 187.391,457.443 186.391,457.11 185.5,456.5C 185.5,454.5 185.5,452.5 185.5,450.5C 184.178,450.33 183.011,450.663 182,451.5C 182.019,453.107 182.185,454.774 182.5,456.5C 181.292,457.234 179.959,457.567 178.5,457.5C 178.5,455.167 178.5,452.833 178.5,450.5C 180.366,449.986 182.2,449.32 184,448.5C 189.195,449.838 190.695,452.838 188.5,457.5 Z"/></g>
<g><path style="opacity:1" fill="#ab91a6" d="M 185.5,456.5 C 184.5,456.5 183.5,456.5 182.5,456.5C 182.185,454.774 182.019,453.107 182,451.5C 183.011,450.663 184.178,450.33 185.5,450.5C 185.5,452.5 185.5,454.5 185.5,456.5 Z"/></g>
<g><path style="opacity:1" fill="#ac9dd5" d="M 195.5,451.5 C 195.5,454.167 195.5,456.833 195.5,459.5C 195.5,460.833 195.5,462.167 195.5,463.5C 194.521,466.625 194.187,469.958 194.5,473.5C 193.514,469.03 193.181,464.363 193.5,459.5C 193.337,457.143 193.503,454.81 194,452.5C 194.383,451.944 194.883,451.611 195.5,451.5 Z"/></g>
<g><path style="opacity:1" fill="#2b2e43" d="M 113.5,448.5 C 113.779,452.034 114.113,455.701 114.5,459.5C 117.422,457.514 119.756,454.514 121.5,450.5C 123.113,452.428 124.113,454.762 124.5,457.5C 125.357,458.425 126.357,459.092 127.5,459.5C 126.064,460.429 124.731,461.595 123.5,463C 124.376,464.586 125.376,466.086 126.5,467.5C 129.388,464.538 130.721,465.205 130.5,469.5C 127.927,470.219 125.427,471.219 123,472.5C 120.911,481.811 118.911,491.144 117,500.5C 115.814,502.677 113.981,503.677 111.5,503.5C 110.851,502.394 110.517,501.394 110.5,500.5C 109.692,502.423 109.192,504.423 109,506.5C 107.978,504.298 107.478,501.965 107.5,499.5C 109.015,486.83 110.348,474.164 111.5,461.5C 111.438,456.924 112.105,452.591 113.5,448.5 Z"/></g>
<g><path style="opacity:1" fill="#8976c4" d="M 173.5,442.5 C 173.334,449.175 173.5,455.842 174,462.5C 175.815,458.539 177.315,454.539 178.5,450.5C 178.5,452.833 178.5,455.167 178.5,457.5C 179.959,457.567 181.292,457.234 182.5,456.5C 183.5,456.5 184.5,456.5 185.5,456.5C 186.391,457.11 187.391,457.443 188.5,457.5C 188.297,459.044 187.63,460.378 186.5,461.5C 188.544,462.065 190.21,463.065 191.5,464.5C 189.833,464.5 188.167,464.5 186.5,464.5C 186.5,465.5 186.5,466.5 186.5,467.5C 187.978,467.238 189.311,467.571 190.5,468.5C 188.754,469.395 186.92,470.062 185,470.5C 181.206,469.77 177.373,469.27 173.5,469C 174.313,467.686 175.313,466.519 176.5,465.5C 175.311,464.571 173.978,464.238 172.5,464.5C 172.795,466.735 172.461,468.735 171.5,470.5C 171.949,461.001 172.615,451.668 173.5,442.5 Z"/></g>
<g><path style="opacity:1" fill="#4b4c6d" d="M 251.5,446.5 C 256.526,467.073 258.526,488.073 257.5,509.5C 256.833,508.833 256.167,508.167 255.5,507.5C 254.109,504.601 252.609,502.268 251,500.5C 249.684,501.974 248.684,503.641 248,505.5C 246.391,504.853 244.891,504.02 243.5,503C 244.451,502.282 244.617,501.449 244,500.5C 242.758,501.872 241.258,502.872 239.5,503.5C 238.999,501.345 237.999,499.678 236.5,498.5C 237.754,485.464 237.42,472.464 235.5,459.5C 234.448,459.351 233.448,459.517 232.5,460C 233.696,460.654 233.696,461.154 232.5,461.5C 231.52,458.914 231.187,456.247 231.5,453.5C 233.775,448 236.775,443 240.5,438.5C 241.833,438.5 243.167,438.5 244.5,438.5C 244.45,436.41 245.45,435.077 247.5,434.5C 248.398,437.616 249.064,440.782 249.5,444C 249.684,445.376 250.351,446.209 251.5,446.5 Z"/></g>
<g><path style="opacity:1" fill="#7661b7" d="M 191.5,464.5 C 191.5,465.167 191.833,465.5 192.5,465.5C 192.5,469.833 192.5,474.167 192.5,478.5C 178.97,477.91 171.637,478.41 170.5,480C 169.62,478.644 169.286,477.144 169.5,475.5C 169.5,474.167 169.5,472.833 169.5,471.5C 170.492,471.672 171.158,471.338 171.5,470.5C 172.461,468.735 172.795,466.735 172.5,464.5C 173.978,464.238 175.311,464.571 176.5,465.5C 175.313,466.519 174.313,467.686 173.5,469C 177.373,469.27 181.206,469.77 185,470.5C 186.92,470.062 188.754,469.395 190.5,468.5C 189.311,467.571 187.978,467.238 186.5,467.5C 186.5,466.5 186.5,465.5 186.5,464.5C 188.167,464.5 189.833,464.5 191.5,464.5 Z"/></g>
<g><path style="opacity:1" fill="#8170ad" d="M 193.5,459.5 C 193.181,464.363 193.514,469.03 194.5,473.5C 194.777,476.448 194.444,479.281 193.5,482C 185.83,482.321 178.163,482.154 170.5,481.5C 168.72,480.01 168.054,478.01 168.5,475.5C 168.833,475.5 169.167,475.5 169.5,475.5C 169.286,477.144 169.62,478.644 170.5,480C 171.637,478.41 178.97,477.91 192.5,478.5C 192.5,474.167 192.5,469.833 192.5,465.5C 192.205,463.265 192.539,461.265 193.5,459.5 Z"/></g>
<g><path style="opacity:1" fill="#2c3154" d="M 194.5,473.5 C 195.525,476.974 196.192,480.64 196.5,484.5C 199.014,484.754 201.348,485.587 203.5,487C 204.924,489.218 206.924,490.718 209.5,491.5C 209.42,495.477 209.753,499.477 210.5,503.5C 212.39,503.297 213.89,503.963 215,505.5C 215.414,505.043 215.914,504.709 216.5,504.5C 216.876,507.389 218.376,509.389 221,510.5C 222.946,510.412 224.946,510.079 227,509.5C 229.433,510.479 231.933,511.145 234.5,511.5C 234.5,512.833 234.5,514.167 234.5,515.5C 233.5,515.5 232.5,515.5 231.5,515.5C 225.776,515.416 219.943,516.083 214,517.5C 211.41,517.624 209.077,516.958 207,515.5C 203.947,515.869 201.113,514.869 198.5,512.5C 197.614,511.675 197.281,510.675 197.5,509.5C 198.496,509.586 199.329,509.252 200,508.5C 200.824,505.118 200.657,501.784 199.5,498.5C 196.891,497.77 194.224,497.27 191.5,497C 190.802,496.029 190.802,494.863 191.5,493.5C 190.99,491.912 189.99,490.745 188.5,490C 185.855,491.487 182.689,491.987 179,491.5C 178.25,490.874 177.416,490.374 176.5,490C 178.019,488.649 179.352,487.149 180.5,485.5C 177.405,483.336 174.072,482.002 170.5,481.5C 178.163,482.154 185.83,482.321 193.5,482C 194.444,479.281 194.777,476.448 194.5,473.5 Z"/></g>
<g><path style="opacity:1" fill="#292d4b" d="M 138.5,431.5 C 139.217,435.88 141.217,439.546 144.5,442.5C 144.918,443.222 145.584,443.722 146.5,444C 145.409,446.064 145.242,448.231 146,450.5C 148.06,453.286 149.56,456.286 150.5,459.5C 152.167,459.5 153.833,459.5 155.5,459.5C 156.848,464.047 158.682,468.38 161,472.5C 162.688,474.188 164.355,475.855 166,477.5C 167.011,476.944 167.844,476.278 168.5,475.5C 168.054,478.01 168.72,480.01 170.5,481.5C 174.072,482.002 177.405,483.336 180.5,485.5C 179.352,487.149 178.019,488.649 176.5,490C 177.416,490.374 178.25,490.874 179,491.5C 182.689,491.987 185.855,491.487 188.5,490C 189.99,490.745 190.99,491.912 191.5,493.5C 190.802,494.863 190.802,496.029 191.5,497C 194.224,497.27 196.891,497.77 199.5,498.5C 200.657,501.784 200.824,505.118 200,508.5C 199.329,509.252 198.496,509.586 197.5,509.5C 201.112,502.418 198.778,498.751 190.5,498.5C 186.56,501.266 182.893,500.933 179.5,497.5C 181.423,496.692 183.423,496.192 185.5,496C 182.39,494.476 179.056,493.642 175.5,493.5C 175.725,491.284 174.892,489.617 173,488.5C 171.667,491.167 170.333,491.167 169,488.5C 168.667,489.167 168.333,489.833 168,490.5C 166.846,489.257 165.512,488.257 164,487.5C 164.612,485.248 164.945,482.915 165,480.5C 164.667,480.167 164.333,479.833 164,479.5C 163.667,480.833 163.333,482.167 163,483.5C 161.806,481.377 161.14,479.043 161,476.5C 156.873,474.479 154.54,471.145 154,466.5C 150.477,462.168 147.644,457.501 145.5,452.5C 144.852,450.914 144.352,449.247 144,447.5C 142.989,446.663 141.822,446.33 140.5,446.5C 140.799,444.396 140.466,442.396 139.5,440.5C 137.062,445.66 134.729,450.826 132.5,456C 133.451,456.718 133.617,457.551 133,458.5C 131.301,459.406 129.467,459.739 127.5,459.5C 126.357,459.092 125.357,458.425 124.5,457.5C 124.113,454.762 123.113,452.428 121.5,450.5C 123.237,448.45 125.237,446.617 127.5,445C 128.449,444.383 129.282,444.549 130,445.5C 130.21,444.197 130.043,442.864 129.5,441.5C 129.833,440.833 130.167,440.167 130.5,439.5C 131.425,440.641 132.259,440.641 133,439.5C 134.605,436.352 135.605,433.019 136,429.5C 136.708,430.381 137.542,431.047 138.5,431.5 Z"/></g>
<g><path style="opacity:1" fill="#1f2746" d="M 160.5,518.5 C 151.992,519.836 143.658,519.002 135.5,516C 131.514,515.501 127.514,515.334 123.5,515.5C 123.67,514.178 123.337,513.011 122.5,512C 123.308,511.692 123.975,511.192 124.5,510.5C 123.81,507.317 122.144,504.817 119.5,503C 120.406,501.301 120.739,499.467 120.5,497.5C 121.5,497.5 122.5,497.5 123.5,497.5C 123.5,499.167 123.5,500.833 123.5,502.5C 124.5,502.5 125.5,502.5 126.5,502.5C 126.343,503.873 126.51,505.207 127,506.5C 129.203,504.331 130.036,501.665 129.5,498.5C 132.082,498.975 134.082,498.308 135.5,496.5C 135.557,491.318 136.224,491.318 137.5,496.5C 138.281,495.271 138.781,493.938 139,492.5C 139.219,493.938 139.719,495.271 140.5,496.5C 141.386,495.675 141.719,494.675 141.5,493.5C 144.249,493.726 146.916,493.393 149.5,492.5C 150.833,493.167 151.833,494.167 152.5,495.5C 154.813,496.273 157.146,496.94 159.5,497.5C 160.828,500.248 162.994,501.915 166,502.5C 166.333,501.833 166.667,501.167 167,500.5C 169.472,504.133 169.972,507.966 168.5,512C 169.191,513.067 169.691,514.234 170,515.5C 172.503,514.45 174.003,515.45 174.5,518.5C 174.167,519.5 173.5,520.167 172.5,520.5C 168.759,518.669 164.759,518.003 160.5,518.5 Z"/></g>
<g><path style="opacity:1" fill="#3d446a" d="M 195.5,463.5 C 196.166,467.021 196.833,470.687 197.5,474.5C 199.949,474.98 202.115,475.98 204,477.5C 204.333,477.167 204.667,476.833 205,476.5C 205.483,477.448 205.649,478.448 205.5,479.5C 207.144,479.286 208.644,479.62 210,480.5C 210.36,482.608 211.027,484.608 212,486.5C 216.342,489.061 220.342,492.061 224,495.5C 224.47,497.774 225.47,499.774 227,501.5C 227.333,501.167 227.667,500.833 228,500.5C 230.305,502.93 233.138,503.93 236.5,503.5C 236.5,501.833 236.5,500.167 236.5,498.5C 237.999,499.678 238.999,501.345 239.5,503.5C 241.258,502.872 242.758,501.872 244,500.5C 244.617,501.449 244.451,502.282 243.5,503C 244.891,504.02 246.391,504.853 248,505.5C 248.684,503.641 249.684,501.974 251,500.5C 252.609,502.268 254.109,504.601 255.5,507.5C 253.777,508.8 251.61,509.467 249,509.5C 245.837,509.013 242.837,509.013 240,509.5C 239.055,509.095 238.388,508.428 238,507.5C 237.26,509.319 236.093,510.652 234.5,511.5C 231.933,511.145 229.433,510.479 227,509.5C 224.946,510.079 222.946,510.412 221,510.5C 218.376,509.389 216.876,507.389 216.5,504.5C 215.914,504.709 215.414,505.043 215,505.5C 213.89,503.963 212.39,503.297 210.5,503.5C 209.753,499.477 209.42,495.477 209.5,491.5C 206.924,490.718 204.924,489.218 203.5,487C 201.348,485.587 199.014,484.754 196.5,484.5C 196.192,480.64 195.525,476.974 194.5,473.5C 194.187,469.958 194.521,466.625 195.5,463.5 Z"/></g>
<g><path style="opacity:1" fill="#24293a" d="M 111.5,461.5 C 110.348,474.164 109.015,486.83 107.5,499.5C 107.478,501.965 107.978,504.298 109,506.5C 109.192,504.423 109.692,502.423 110.5,500.5C 110.517,501.394 110.851,502.394 111.5,503.5C 113.246,505.039 114.246,507.039 114.5,509.5C 112.751,510.949 112.584,512.282 114,513.5C 114.772,517.89 114.606,522.223 113.5,526.5C 114.025,527.192 114.692,527.692 115.5,528C 114.234,528.309 113.067,528.809 112,529.5C 110.983,534.381 109.483,539.048 107.5,543.5C 108.325,544.386 109.325,544.719 110.5,544.5C 110.714,546.144 110.38,547.644 109.5,549C 110.765,550.337 111.265,551.837 111,553.5C 108.31,551.146 107.81,551.813 109.5,555.5C 110.623,557.518 110.623,559.518 109.5,561.5C 110.723,562.614 112.056,562.781 113.5,562C 112.289,561.107 112.289,560.274 113.5,559.5C 115.409,560.348 117.409,560.682 119.5,560.5C 119.737,561.791 119.404,562.791 118.5,563.5C 116.833,563.5 115.167,563.5 113.5,563.5C 104.744,563.245 100.078,558.745 99.5,550C 103.007,520.289 107.007,490.789 111.5,461.5 Z"/></g>
<g><path style="opacity:1" fill="#1e2540" d="M 145.5,452.5 C 147.644,457.501 150.477,462.168 154,466.5C 154.54,471.145 156.873,474.479 161,476.5C 161.14,479.043 161.806,481.377 163,483.5C 163.333,482.167 163.667,480.833 164,479.5C 164.333,479.833 164.667,480.167 165,480.5C 164.945,482.915 164.612,485.248 164,487.5C 165.512,488.257 166.846,489.257 168,490.5C 168.333,489.833 168.667,489.167 169,488.5C 170.333,491.167 171.667,491.167 173,488.5C 174.892,489.617 175.725,491.284 175.5,493.5C 179.056,493.642 182.39,494.476 185.5,496C 183.423,496.192 181.423,496.692 179.5,497.5C 182.893,500.933 186.56,501.266 190.5,498.5C 198.778,498.751 201.112,502.418 197.5,509.5C 195.396,509.201 193.396,509.534 191.5,510.5C 189.817,512.514 187.817,514.18 185.5,515.5C 184.548,517.045 184.215,518.712 184.5,520.5C 193.036,519.676 201.87,519.009 211,518.5C 214.5,518.833 218,519.167 221.5,519.5C 223.534,524.255 225.868,528.921 228.5,533.5C 227.512,536.45 226.679,539.45 226,542.5C 222.61,546.393 218.777,549.727 214.5,552.5C 212.971,552.471 211.804,551.804 211,550.5C 206.545,551.937 202.878,554.604 200,558.5C 200.979,560.279 200.646,561.945 199,563.5C 196.695,563.421 194.195,563.254 191.5,563C 190.019,562.02 188.685,560.853 187.5,559.5C 181.014,559.594 174.347,559.594 167.5,559.5C 169.969,558.683 172.635,558.183 175.5,558C 177.07,555.213 179.404,553.379 182.5,552.5C 184.532,553.551 185.865,555.217 186.5,557.5C 193.34,552.538 192.34,549.205 183.5,547.5C 178.415,549.282 173.748,548.616 169.5,545.5C 170.715,542.428 172.882,541.761 176,543.5C 178.953,543.109 181.787,542.275 184.5,541C 188.865,540.029 192.865,540.862 196.5,543.5C 197.386,544.325 197.719,545.325 197.5,546.5C 200.518,546.335 203.518,546.502 206.5,547C 205.112,547.889 205.278,548.389 207,548.5C 208.63,547.287 210.464,546.454 212.5,546C 214.807,540.963 213.14,538.629 207.5,539C 205.586,537.587 204.253,535.753 203.5,533.5C 201.614,532.594 199.78,531.594 198,530.5C 197.506,528.866 197.34,527.199 197.5,525.5C 201.481,524.979 205.481,524.646 209.5,524.5C 209.33,523.178 209.663,522.011 210.5,521C 205.745,520.736 200.745,521.236 195.5,522.5C 187.195,521.726 178.861,521.226 170.5,521C 167.264,519.276 163.93,519.11 160.5,520.5C 160.5,519.833 160.5,519.167 160.5,518.5C 164.759,518.003 168.759,518.669 172.5,520.5C 173.5,520.167 174.167,519.5 174.5,518.5C 174.003,515.45 172.503,514.45 170,515.5C 169.691,514.234 169.191,513.067 168.5,512C 169.972,507.966 169.472,504.133 167,500.5C 166.667,501.167 166.333,501.833 166,502.5C 162.994,501.915 160.828,500.248 159.5,497.5C 157.146,496.94 154.813,496.273 152.5,495.5C 151.833,494.167 150.833,493.167 149.5,492.5C 146.916,493.393 144.249,493.726 141.5,493.5C 141.719,494.675 141.386,495.675 140.5,496.5C 139.719,495.271 139.219,493.938 139,492.5C 138.781,493.938 138.281,495.271 137.5,496.5C 136.224,491.318 135.557,491.318 135.5,496.5C 134.691,494.708 134.191,492.708 134,490.5C 133.505,492.473 133.338,494.473 133.5,496.5C 132.5,496.5 131.5,496.5 130.5,496.5C 130.167,492.5 129.833,488.5 129.5,484.5C 131.527,484.662 133.527,484.495 135.5,484C 134.207,483.51 132.873,483.343 131.5,483.5C 131.751,480.091 131.417,476.758 130.5,473.5C 130.808,472.692 131.308,472.025 132,471.5C 134.805,472.473 135.305,474.14 133.5,476.5C 134.98,479.471 136.813,482.138 139,484.5C 138.667,481.833 138.333,479.167 138,476.5C 139.643,478.977 141.476,481.31 143.5,483.5C 152.009,485.758 159.342,490.091 165.5,496.5C 166.251,495.624 166.751,494.624 167,493.5C 168.813,494.609 169.646,493.942 169.5,491.5C 162.515,490.159 159.349,485.825 160,478.5C 157.667,476.5 155.333,474.5 153,472.5C 150.62,467.474 148.286,462.474 146,457.5C 145.506,455.866 145.34,454.199 145.5,452.5 Z"/></g>
<g><path style="opacity:1" fill="#1b2238" d="M 123.5,515.5 C 127.514,515.334 131.514,515.501 135.5,516C 143.658,519.002 151.992,519.836 160.5,518.5C 160.5,519.167 160.5,519.833 160.5,520.5C 159.244,520.461 158.244,520.961 157.5,522C 158.956,523.745 160.289,525.578 161.5,527.5C 162.731,525.55 164.398,524.717 166.5,525C 163.929,528.281 163.929,531.615 166.5,535C 164.745,537.341 163.411,539.841 162.5,542.5C 162.337,545.339 163.67,547.006 166.5,547.5C 162.936,550.09 159.27,552.59 155.5,555C 154.62,556.356 154.286,557.856 154.5,559.5C 156.167,559.5 157.833,559.5 159.5,559.5C 157.052,560.473 154.385,560.806 151.5,560.5C 150.074,557.744 149.241,555.077 149,552.5C 147.364,554.55 145.198,555.55 142.5,555.5C 142.269,551.915 143.269,548.748 145.5,546C 143.619,544.898 141.952,543.565 140.5,542C 140.667,541.5 140.833,541 141,540.5C 142.049,541.517 143.216,541.684 144.5,541C 142.119,539.234 139.452,538.068 136.5,537.5C 135.797,534.316 133.797,532.816 130.5,533C 128.52,530.497 126.187,528.664 123.5,527.5C 123.5,526.5 123.5,525.5 123.5,524.5C 120.833,524.5 118.167,524.5 115.5,524.5C 115.18,521.102 115.513,517.768 116.5,514.5C 118.747,515.374 121.08,515.708 123.5,515.5 Z"/></g>
<g><path style="opacity:1" fill="#182032" d="M 167.5,559.5 C 164.896,560.53 162.229,560.53 159.5,559.5C 157.833,559.5 156.167,559.5 154.5,559.5C 154.286,557.856 154.62,556.356 155.5,555C 159.27,552.59 162.936,550.09 166.5,547.5C 163.67,547.006 162.337,545.339 162.5,542.5C 163.411,539.841 164.745,537.341 166.5,535C 163.929,531.615 163.929,528.281 166.5,525C 164.398,524.717 162.731,525.55 161.5,527.5C 160.289,525.578 158.956,523.745 157.5,522C 158.244,520.961 159.244,520.461 160.5,520.5C 163.93,519.11 167.264,519.276 170.5,521C 178.861,521.226 187.195,521.726 195.5,522.5C 200.745,521.236 205.745,520.736 210.5,521C 209.663,522.011 209.33,523.178 209.5,524.5C 205.481,524.646 201.481,524.979 197.5,525.5C 197.34,527.199 197.506,528.866 198,530.5C 199.78,531.594 201.614,532.594 203.5,533.5C 204.253,535.753 205.586,537.587 207.5,539C 213.14,538.629 214.807,540.963 212.5,546C 210.464,546.454 208.63,547.287 207,548.5C 205.278,548.389 205.112,547.889 206.5,547C 203.518,546.502 200.518,546.335 197.5,546.5C 197.719,545.325 197.386,544.325 196.5,543.5C 192.865,540.862 188.865,540.029 184.5,541C 181.787,542.275 178.953,543.109 176,543.5C 172.882,541.761 170.715,542.428 169.5,545.5C 173.748,548.616 178.415,549.282 183.5,547.5C 192.34,549.205 193.34,552.538 186.5,557.5C 185.865,555.217 184.532,553.551 182.5,552.5C 179.404,553.379 177.07,555.213 175.5,558C 172.635,558.183 169.969,558.683 167.5,559.5 Z"/></g>
<g><path style="opacity:1" fill="#282d44" d="M 255.5,507.5 C 256.167,508.167 256.833,508.833 257.5,509.5C 258.341,516.465 258.674,523.465 258.5,530.5C 257.5,530.5 256.5,530.5 255.5,530.5C 254.335,534.989 252.001,538.823 248.5,542C 247.852,543.44 247.519,544.94 247.5,546.5C 246.5,546.5 245.5,546.5 244.5,546.5C 241.957,554.562 239.29,562.562 236.5,570.5C 236.863,571.183 237.196,571.85 237.5,572.5C 225.345,573.495 213.011,573.829 200.5,573.5C 182.452,572.031 164.452,570.697 146.5,569.5C 138.727,568.039 131.06,566.705 123.5,565.5C 127.167,565.5 130.833,565.5 134.5,565.5C 138.375,564.186 142.042,564.519 145.5,566.5C 147.149,565.352 148.649,564.019 150,562.5C 151.011,563.337 152.178,563.67 153.5,563.5C 153.222,565.346 153.889,566.68 155.5,567.5C 157.55,566.923 158.55,565.59 158.5,563.5C 161.167,563.5 163.833,563.5 166.5,563.5C 166.5,565.5 166.5,567.5 166.5,569.5C 171.351,570.216 175.518,568.883 179,565.5C 180.333,566.833 181.667,568.167 183,569.5C 183.333,569.167 183.667,568.833 184,568.5C 189.952,570.112 196.119,571.279 202.5,572C 213.167,572.667 223.833,572.667 234.5,572C 235.958,565.884 236.458,559.718 236,553.5C 236.983,551.552 238.15,549.718 239.5,548C 238.975,547.308 238.308,546.808 237.5,546.5C 236.336,539.858 236.169,533.192 237,526.5C 238.022,525.646 238.855,524.646 239.5,523.5C 238.359,522.575 238.359,521.741 239.5,521C 236.788,518.993 235.288,519.826 235,523.5C 233.764,521.693 233.43,519.693 234,517.5C 233.005,516.934 232.172,516.267 231.5,515.5C 232.5,515.5 233.5,515.5 234.5,515.5C 234.5,514.167 234.5,512.833 234.5,511.5C 236.093,510.652 237.26,509.319 238,507.5C 238.388,508.428 239.055,509.095 240,509.5C 242.837,509.013 245.837,509.013 249,509.5C 251.61,509.467 253.777,508.8 255.5,507.5 Z"/></g>
<g><path style="opacity:1" fill="#1d2231" d="M 258.5,530.5 C 258.769,539.92 259.769,549.253 261.5,558.5C 257.7,558.794 255.2,560.794 254,564.5C 253.329,565.252 252.496,565.586 251.5,565.5C 247.965,569.934 243.299,572.267 237.5,572.5C 237.196,571.85 236.863,571.183 236.5,570.5C 239.29,562.562 241.957,554.562 244.5,546.5C 245.5,546.5 246.5,546.5 247.5,546.5C 247.519,544.94 247.852,543.44 248.5,542C 252.001,538.823 254.335,534.989 255.5,530.5C 256.5,530.5 257.5,530.5 258.5,530.5 Z"/></g>
<g><path style="opacity:1" fill="#2c3450" d="M 135.5,557.5 C 139.525,560.489 139.191,563.156 134.5,565.5C 130.833,565.5 127.167,565.5 123.5,565.5C 121.694,564.976 120.028,564.309 118.5,563.5C 119.404,562.791 119.737,561.791 119.5,560.5C 117.409,560.682 115.409,560.348 113.5,559.5C 112.289,560.274 112.289,561.107 113.5,562C 112.056,562.781 110.723,562.614 109.5,561.5C 110.623,559.518 110.623,557.518 109.5,555.5C 117.428,555.367 122.261,551.367 124,543.5C 125.816,544.329 127.649,545.163 129.5,546C 128.833,546.333 128.167,546.667 127.5,547C 129.329,547.273 130.829,548.107 132,549.5C 133.852,551.23 133.686,552.396 131.5,553C 132.741,554.698 134.074,556.198 135.5,557.5 Z"/></g>
<g><path style="opacity:1" fill="#202948" d="M 197.5,509.5 C 197.281,510.675 197.614,511.675 198.5,512.5C 201.113,514.869 203.947,515.869 207,515.5C 209.077,516.958 211.41,517.624 214,517.5C 219.943,516.083 225.776,515.416 231.5,515.5C 232.172,516.267 233.005,516.934 234,517.5C 233.43,519.693 233.764,521.693 235,523.5C 235.288,519.826 236.788,518.993 239.5,521C 238.359,521.741 238.359,522.575 239.5,523.5C 238.855,524.646 238.022,525.646 237,526.5C 236.169,533.192 236.336,539.858 237.5,546.5C 238.308,546.808 238.975,547.308 239.5,548C 238.15,549.718 236.983,551.552 236,553.5C 236.458,559.718 235.958,565.884 234.5,572C 223.833,572.667 213.167,572.667 202.5,572C 196.119,571.279 189.952,570.112 184,568.5C 183.667,568.833 183.333,569.167 183,569.5C 181.667,568.167 180.333,566.833 179,565.5C 175.518,568.883 171.351,570.216 166.5,569.5C 166.5,567.5 166.5,565.5 166.5,563.5C 163.833,563.5 161.167,563.5 158.5,563.5C 158.55,565.59 157.55,566.923 155.5,567.5C 153.889,566.68 153.222,565.346 153.5,563.5C 152.178,563.67 151.011,563.337 150,562.5C 148.649,564.019 147.149,565.352 145.5,566.5C 142.042,564.519 138.375,564.186 134.5,565.5C 139.191,563.156 139.525,560.489 135.5,557.5C 141.036,557.785 146.37,558.785 151.5,560.5C 154.385,560.806 157.052,560.473 159.5,559.5C 162.229,560.53 164.896,560.53 167.5,559.5C 174.347,559.594 181.014,559.594 187.5,559.5C 188.685,560.853 190.019,562.02 191.5,563C 194.195,563.254 196.695,563.421 199,563.5C 200.646,561.945 200.979,560.279 200,558.5C 202.878,554.604 206.545,551.937 211,550.5C 211.804,551.804 212.971,552.471 214.5,552.5C 218.777,549.727 222.61,546.393 226,542.5C 226.679,539.45 227.512,536.45 228.5,533.5C 225.868,528.921 223.534,524.255 221.5,519.5C 218,519.167 214.5,518.833 211,518.5C 201.87,519.009 193.036,519.676 184.5,520.5C 184.215,518.712 184.548,517.045 185.5,515.5C 187.817,514.18 189.817,512.514 191.5,510.5C 193.396,509.534 195.396,509.201 197.5,509.5 Z"/></g>
<g><path style="opacity:1" fill="#141514" d="M 251.5,565.5 C 249.269,569.941 248.936,574.608 250.5,579.5C 248.392,593.468 246.726,607.468 245.5,621.5C 244.662,621.842 244.328,622.508 244.5,623.5C 242.694,620.662 241.694,620.995 241.5,624.5C 239.549,624.227 238.049,624.893 237,626.5C 236.586,626.043 236.086,625.709 235.5,625.5C 234.738,626.628 234.071,627.795 233.5,629C 227.446,630.793 221.613,632.96 216,635.5C 215.667,633.833 215.333,632.167 215,630.5C 214.63,633.28 213.63,635.28 212,636.5C 209.618,635.134 207.452,635.467 205.5,637.5C 206.025,638.192 206.692,638.692 207.5,639C 206.128,639.402 204.795,639.902 203.5,640.5C 202.269,641.651 202.269,642.817 203.5,644C 202.584,644.278 201.918,644.778 201.5,645.5C 201.167,645.5 200.833,645.5 200.5,645.5C 196.83,637.156 194.163,628.489 192.5,619.5C 191.976,611.947 190.643,604.613 188.5,597.5C 190.263,593.948 192.93,591.281 196.5,589.5C 198.156,591.022 199.323,590.689 200,588.5C 200.961,584.774 199.461,582.608 195.5,582C 198.139,580.054 201.139,579.054 204.5,579C 203.376,578.751 202.376,578.251 201.5,577.5C 203.5,576.667 205.5,575.833 207.5,575C 204.964,574.814 202.631,574.314 200.5,573.5C 213.011,573.829 225.345,573.495 237.5,572.5C 243.299,572.267 247.965,569.934 251.5,565.5 Z"/></g>
<g><path style="opacity:0.995" fill="#191b15" d="M 113.5,563.5 C 115.167,563.5 116.833,563.5 118.5,563.5C 120.028,564.309 121.694,564.976 123.5,565.5C 131.06,566.705 138.727,568.039 146.5,569.5C 145.904,571.965 146.57,574.298 148.5,576.5C 145.143,577.988 143.31,580.655 143,584.5C 142.57,587.192 142.737,589.859 143.5,592.5C 142.448,592.351 141.448,592.517 140.5,593C 142.307,596.327 143.307,599.994 143.5,604C 143.646,606.188 142.646,607.521 140.5,608C 142.82,609.488 142.987,611.321 141,613.5C 140.667,613.167 140.333,612.833 140,612.5C 139.747,617.039 139.247,621.539 138.5,626C 140.123,629.616 139.79,632.95 137.5,636C 138.787,639.125 138.787,642.291 137.5,645.5C 135.616,646.115 134.616,647.448 134.5,649.5C 135.163,651.49 135.163,653.323 134.5,655C 134.944,656.762 135.444,656.595 136,654.5C 136.711,657.734 137.545,660.901 138.5,664C 146.833,664.667 155.167,664.667 163.5,664C 165.061,663.682 166.228,662.849 167,661.5C 167.494,663.134 167.66,664.801 167.5,666.5C 155.167,666.5 142.833,666.5 130.5,666.5C 131.551,651.118 131.717,635.118 131,618.5C 128.925,600.535 125.425,582.869 120.5,565.5C 117.933,565.279 115.599,564.612 113.5,563.5 Z"/></g>
<g><path style="opacity:1" fill="#12130f" d="M 146.5,569.5 C 164.452,570.697 182.452,572.031 200.5,573.5C 202.631,574.314 204.964,574.814 207.5,575C 205.5,575.833 203.5,576.667 201.5,577.5C 202.376,578.251 203.376,578.751 204.5,579C 201.139,579.054 198.139,580.054 195.5,582C 199.461,582.608 200.961,584.774 200,588.5C 199.323,590.689 198.156,591.022 196.5,589.5C 192.93,591.281 190.263,593.948 188.5,597.5C 190.643,604.613 191.976,611.947 192.5,619.5C 190.354,613.717 188.521,607.717 187,601.5C 175.162,621.514 169.328,643.18 169.5,666.5C 168.833,666.5 168.167,666.5 167.5,666.5C 167.66,664.801 167.494,663.134 167,661.5C 166.228,662.849 165.061,663.682 163.5,664C 155.167,664.667 146.833,664.667 138.5,664C 137.545,660.901 136.711,657.734 136,654.5C 135.444,656.595 134.944,656.762 134.5,655C 135.163,653.323 135.163,651.49 134.5,649.5C 134.616,647.448 135.616,646.115 137.5,645.5C 138.787,642.291 138.787,639.125 137.5,636C 139.79,632.95 140.123,629.616 138.5,626C 139.247,621.539 139.747,617.039 140,612.5C 140.333,612.833 140.667,613.167 141,613.5C 142.987,611.321 142.82,609.488 140.5,608C 142.646,607.521 143.646,606.188 143.5,604C 143.307,599.994 142.307,596.327 140.5,593C 141.448,592.517 142.448,592.351 143.5,592.5C 142.737,589.859 142.57,587.192 143,584.5C 143.31,580.655 145.143,577.988 148.5,576.5C 146.57,574.298 145.904,571.965 146.5,569.5 Z"/></g>
<g><path style="opacity:1" fill="#211e1c" d="M 244.5,623.5 C 242.934,625.625 241.6,627.958 240.5,630.5C 238.929,632.415 236.929,633.415 234.5,633.5C 234.5,634.5 234.5,635.5 234.5,636.5C 230.439,637.132 226.606,638.465 223,640.5C 222.127,640.265 221.293,639.931 220.5,639.5C 216.058,643.054 211.058,645.554 205.5,647C 203.384,650.132 202.051,649.632 201.5,645.5C 201.918,644.778 202.584,644.278 203.5,644C 202.269,642.817 202.269,641.651 203.5,640.5C 204.795,639.902 206.128,639.402 207.5,639C 206.692,638.692 206.025,638.192 205.5,637.5C 207.452,635.467 209.618,635.134 212,636.5C 213.63,635.28 214.63,633.28 215,630.5C 215.333,632.167 215.667,633.833 216,635.5C 221.613,632.96 227.446,630.793 233.5,629C 234.071,627.795 234.738,626.628 235.5,625.5C 236.086,625.709 236.586,626.043 237,626.5C 238.049,624.893 239.549,624.227 241.5,624.5C 241.694,620.995 242.694,620.662 244.5,623.5 Z"/></g>
<g><path style="opacity:1" fill="#3a2a26" d="M 245.5,621.5 C 245.587,626.537 245.254,631.537 244.5,636.5C 243.833,637.167 243.167,637.833 242.5,638.5C 242.631,637.761 242.464,637.094 242,636.5C 239.842,638.333 237.676,640.166 235.5,642C 229.027,644.047 223.027,647.047 217.5,651C 212.603,652.734 207.603,653.901 202.5,654.5C 201.525,651.689 200.858,648.689 200.5,645.5C 200.833,645.5 201.167,645.5 201.5,645.5C 202.051,649.632 203.384,650.132 205.5,647C 211.058,645.554 216.058,643.054 220.5,639.5C 221.293,639.931 222.127,640.265 223,640.5C 226.606,638.465 230.439,637.132 234.5,636.5C 234.5,635.5 234.5,634.5 234.5,633.5C 236.929,633.415 238.929,632.415 240.5,630.5C 241.6,627.958 242.934,625.625 244.5,623.5C 244.328,622.508 244.662,621.842 245.5,621.5 Z"/></g>
<g><path style="opacity:1" fill="#4f3532" d="M 242.5,638.5 C 243.388,641.054 243.721,643.721 243.5,646.5C 241.599,646.433 239.766,646.767 238,647.5C 229.829,653.339 220.662,656.839 210.5,658C 209.055,660.124 207.721,662.291 206.5,664.5C 205.25,664.423 204.417,663.756 204,662.5C 203.433,659.832 202.933,657.166 202.5,654.5C 207.603,653.901 212.603,652.734 217.5,651C 223.027,647.047 229.027,644.047 235.5,642C 237.676,640.166 239.842,638.333 242,636.5C 242.464,637.094 242.631,637.761 242.5,638.5 Z"/></g>
<g><path style="opacity:1" fill="#613e3c" d="M 244.5,636.5 C 245.902,641.867 245.735,647.2 244,652.5C 241.404,656.931 238.238,660.931 234.5,664.5C 225.039,665.818 215.705,665.818 206.5,664.5C 207.721,662.291 209.055,660.124 210.5,658C 220.662,656.839 229.829,653.339 238,647.5C 239.766,646.767 241.599,646.433 243.5,646.5C 243.721,643.721 243.388,641.054 242.5,638.5C 243.167,637.833 243.833,637.167 244.5,636.5 Z"/></g>
</svg>
